<?xml version="1.0" encoding="UTF-8"?>
<svg id="Layer_1" data-name="Layer 1" xmlns="http://www.w3.org/2000/svg" xmlns:xlink="http://www.w3.org/1999/xlink" viewBox="0 0 110 200.04">
  <defs>
    <style>
      .cls-1 {
        fill: #f79e1b;
      }

      .cls-1, .cls-2, .cls-3, .cls-4, .cls-5, .cls-6, .cls-7, .cls-8, .cls-9, .cls-10, .cls-11, .cls-12, .cls-13, .cls-14, .cls-15, .cls-16, .cls-17, .cls-18 {
        stroke-width: 0px;
      }

      .cls-19 {
        fill: #707577;
        font-size: 4.04px;
      }

      .cls-19, .cls-20, .cls-21 {
        font-family: JosefinSansRoman-Bold, 'Josefin Sans';
        font-variation-settings: 'wght' 700;
        font-weight: 700;
      }

      .cls-20, .cls-21, .cls-14 {
        fill: #fff;
      }

      .cls-2 {
        fill: url(#linear-gradient);
      }

      .cls-3 {
        fill: #053b62;
      }

      .cls-4 {
        fill: #000;
      }

      .cls-22 {
        letter-spacing: 0em;
      }

      .cls-23 {
        letter-spacing: -.06em;
      }

      .cls-5 {
        fill: #016fd0;
      }

      .cls-24 {
        font-size: 8.9px;
      }

      .cls-25 {
        letter-spacing: -.02em;
      }

      .cls-6 {
        fill: #faa61a;
      }

      .cls-7 {
        fill: none;
      }

      .cls-26 {
        clip-path: url(#clippath-4);
      }

      .cls-21 {
        font-size: 4.18px;
      }

      .cls-27 {
        font-size: 2.43px;
      }

      .cls-28 {
        letter-spacing: -.06em;
      }

      .cls-8 {
        fill: #eb001b;
      }

      .cls-9 {
        fill: url(#linear-gradient-2);
      }

      .cls-10 {
        fill: #1fa846;
      }

      .cls-29 {
        letter-spacing: -.02em;
      }

      .cls-30 {
        letter-spacing: -.01em;
      }

      .cls-11 {
        fill: #ff5a00;
      }

      .cls-12 {
        fill: #c9992c;
      }

      .cls-31 {
        fill: url(#radial-gradient-2);
      }

      .cls-13 {
        fill: url(#radial-gradient);
      }

      .cls-32 {
        clip-path: url(#clippath-3);
      }

      .cls-33 {
        letter-spacing: -.02em;
      }

      .cls-34 {
        fill: url(#linear-gradient-3);
      }

      .cls-15 {
        fill: #005996;
      }

      .cls-16 {
        fill: #72be44;
      }

      .cls-17 {
        fill: url(#linear-gradient-4);
      }

      .cls-18 {
        fill: #00579f;
      }
    </style>
    <linearGradient id="linear-gradient" x1="55" y1="201.83" x2="55" y2="184.58" gradientUnits="userSpaceOnUse">
      <stop offset="0" stop-color="#fff" stop-opacity="0"/>
      <stop offset="1" stop-color="#918f90"/>
    </linearGradient>
    <radialGradient id="radial-gradient" cx="52.81" cy="-322.03" fx="52.81" fy="-322.03" r="7.27" gradientTransform="translate(0 -256.06) scale(1 -1)" gradientUnits="userSpaceOnUse">
      <stop offset="0" stop-color="#6e4030"/>
      <stop offset=".27" stop-color="#6e4030"/>
      <stop offset=".43" stop-color="#71432e"/>
      <stop offset=".57" stop-color="#7c4d2b"/>
      <stop offset=".71" stop-color="#8d5a24"/>
      <stop offset=".84" stop-color="#a67029"/>
      <stop offset=".96" stop-color="#c1852b"/>
      <stop offset="1" stop-color="#c1852b"/>
    </radialGradient>
    <radialGradient id="radial-gradient-2" cy="65.96" fy="65.96" gradientTransform="matrix(1,0,0,1,0,0)" xlink:href="#radial-gradient"/>
    <linearGradient id="linear-gradient-2" x1="52.8" y1="-315.99" x2="52.8" y2="-328.07" gradientTransform="translate(0 -256.06) scale(1 -1)" gradientUnits="userSpaceOnUse">
      <stop offset="0" stop-color="#fff"/>
      <stop offset="0" stop-color="#fff"/>
      <stop offset=".51" stop-color="#bcbdbf"/>
      <stop offset="1" stop-color="#bcbdbf"/>
    </linearGradient>
    <linearGradient id="linear-gradient-3" x1="54.92" y1="59.76" x2="54.92" y2="69.08" gradientUnits="userSpaceOnUse">
      <stop offset="0" stop-color="#2e96bf"/>
      <stop offset=".45" stop-color="#0177ab"/>
      <stop offset="1" stop-color="#23418e"/>
    </linearGradient>
    <linearGradient id="linear-gradient-4" x1="48.39" y1="-321.96" x2="52.83" y2="-321.96" gradientTransform="translate(0 -256.06) scale(1 -1)" gradientUnits="userSpaceOnUse">
      <stop offset="0" stop-color="#d1232a"/>
      <stop offset="0" stop-color="#d1232a"/>
      <stop offset=".17" stop-color="#c82128"/>
      <stop offset=".68" stop-color="#b12024"/>
      <stop offset="1" stop-color="#a81f23"/>
    </linearGradient>
    <clipPath id="clippath-3">
      <rect class="cls-7" x="46.73" y="172.66" width="15.18" height="4.91"/>
    </clipPath>
    <clipPath id="clippath-4">
      <rect class="cls-7" x="35.9" y="171.33" width="7.56" height="7.56"/>
    </clipPath>
  </defs>
  <rect class="cls-2" x="48.58" y="185" width="12.83" height="17.47"/>
  <g>
    <rect class="cls-3" x="0" y="-.14" width="110" height="185.29" rx="12.03" ry="12.03"/>
    <rect class="cls-14" x="3" y="2.86" width="104" height="179.29" rx="9.03" ry="9.03"/>
  </g>
  <g>
    <rect class="cls-14" x="24.98" y="36.37" width="59.18" height="59.18" rx="5.33" ry="5.33"/>
    <g>
      <circle class="cls-4" cx="45.6" cy="40.86" r=".54"/>
      <circle class="cls-4" cx="49.19" cy="40.86" r=".54"/>
      <circle class="cls-4" cx="54.57" cy="40.86" r=".54"/>
      <circle class="cls-4" cx="56.36" cy="40.86" r=".54"/>
      <circle class="cls-4" cx="61.74" cy="40.86" r=".54"/>
      <circle class="cls-4" cx="65.33" cy="40.86" r=".54"/>
      <circle class="cls-4" cx="47.4" cy="42.65" r=".54"/>
      <circle class="cls-4" cx="50.98" cy="42.65" r=".54"/>
      <circle class="cls-4" cx="52.78" cy="42.65" r=".54"/>
      <circle class="cls-4" cx="54.57" cy="42.65" r=".54"/>
      <circle class="cls-4" cx="56.36" cy="42.65" r=".54"/>
      <circle class="cls-4" cx="58.16" cy="42.65" r=".54"/>
      <circle class="cls-4" cx="59.95" cy="42.65" r=".54"/>
      <circle class="cls-4" cx="63.54" cy="42.65" r=".54"/>
      <circle class="cls-4" cx="65.33" cy="42.65" r=".54"/>
      <circle class="cls-4" cx="45.6" cy="44.44" r=".54"/>
      <circle class="cls-4" cx="49.19" cy="44.44" r=".54"/>
      <circle class="cls-4" cx="52.78" cy="44.44" r=".54"/>
      <circle class="cls-4" cx="54.57" cy="44.44" r=".54"/>
      <circle class="cls-4" cx="56.36" cy="44.44" r=".54"/>
      <circle class="cls-4" cx="61.74" cy="44.44" r=".54"/>
      <circle class="cls-4" cx="65.33" cy="44.44" r=".54"/>
      <circle class="cls-4" cx="45.6" cy="46.24" r=".54"/>
      <circle class="cls-4" cx="47.4" cy="46.24" r=".54"/>
      <circle class="cls-4" cx="49.19" cy="46.24" r=".54"/>
      <circle class="cls-4" cx="52.78" cy="46.24" r=".54"/>
      <circle class="cls-4" cx="59.95" cy="46.24" r=".54"/>
      <circle class="cls-4" cx="63.54" cy="46.24" r=".54"/>
      <circle class="cls-4" cx="43.81" cy="48.03" r=".54"/>
      <circle class="cls-4" cx="45.6" cy="48.03" r=".54"/>
      <circle class="cls-4" cx="47.4" cy="48.03" r=".54"/>
      <circle class="cls-4" cx="52.78" cy="48.03" r=".54"/>
      <circle class="cls-4" cx="58.16" cy="48.03" r=".54"/>
      <circle class="cls-4" cx="59.95" cy="48.03" r=".54"/>
      <circle class="cls-4" cx="61.74" cy="48.03" r=".54"/>
      <circle class="cls-4" cx="63.54" cy="48.03" r=".54"/>
      <circle class="cls-4" cx="49.19" cy="49.82" r=".54"/>
      <circle class="cls-4" cx="52.78" cy="49.82" r=".54"/>
      <circle class="cls-4" cx="63.54" cy="49.82" r=".54"/>
      <circle class="cls-4" cx="65.33" cy="49.82" r=".54"/>
      <circle class="cls-4" cx="43.81" cy="51.62" r=".54"/>
      <circle class="cls-4" cx="47.4" cy="51.62" r=".54"/>
      <circle class="cls-4" cx="50.98" cy="51.62" r=".54"/>
      <circle class="cls-4" cx="54.57" cy="51.62" r=".54"/>
      <circle class="cls-4" cx="58.16" cy="51.62" r=".54"/>
      <circle class="cls-4" cx="61.74" cy="51.62" r=".54"/>
      <circle class="cls-4" cx="65.33" cy="51.62" r=".54"/>
      <circle class="cls-4" cx="43.81" cy="53.41" r=".54"/>
      <circle class="cls-4" cx="49.19" cy="53.41" r=".54"/>
      <circle class="cls-4" cx="50.98" cy="53.41" r=".54"/>
      <circle class="cls-4" cx="54.57" cy="53.41" r=".54"/>
      <circle class="cls-4" cx="59.95" cy="53.41" r=".54"/>
      <circle class="cls-4" cx="61.74" cy="53.41" r=".54"/>
      <circle class="cls-4" cx="33.05" cy="55.2" r=".54"/>
      <circle class="cls-4" cx="34.84" cy="55.2" r=".54"/>
      <circle class="cls-4" cx="40.22" cy="55.2" r=".54"/>
      <circle class="cls-4" cx="42.02" cy="55.2" r=".54"/>
      <circle class="cls-4" cx="43.81" cy="55.2" r=".54"/>
      <circle class="cls-4" cx="45.6" cy="55.2" r=".54"/>
      <circle class="cls-4" cx="47.4" cy="55.2" r=".54"/>
      <circle class="cls-4" cx="49.19" cy="55.2" r=".54"/>
      <circle class="cls-4" cx="50.98" cy="55.2" r=".54"/>
      <circle class="cls-4" cx="54.57" cy="55.2" r=".54"/>
      <circle class="cls-4" cx="58.16" cy="55.2" r=".54"/>
      <circle class="cls-4" cx="63.54" cy="55.2" r=".54"/>
      <circle class="cls-4" cx="65.33" cy="55.2" r=".54"/>
      <circle class="cls-4" cx="67.12" cy="55.2" r=".54"/>
      <circle class="cls-4" cx="68.92" cy="55.2" r=".54"/>
      <circle class="cls-4" cx="72.5" cy="55.2" r=".54"/>
      <circle class="cls-4" cx="29.46" cy="57" r=".54"/>
      <circle class="cls-4" cx="31.26" cy="57" r=".54"/>
      <circle class="cls-4" cx="34.84" cy="57" r=".54"/>
      <circle class="cls-4" cx="38.43" cy="57" r=".54"/>
      <circle class="cls-4" cx="43.81" cy="57" r=".54"/>
      <circle class="cls-4" cx="50.98" cy="57" r=".54"/>
      <circle class="cls-4" cx="52.78" cy="57" r=".54"/>
      <circle class="cls-4" cx="59.95" cy="57" r=".54"/>
      <circle class="cls-4" cx="67.12" cy="57" r=".54"/>
      <circle class="cls-4" cx="68.92" cy="57" r=".54"/>
      <circle class="cls-4" cx="70.71" cy="57" r=".54"/>
      <circle class="cls-4" cx="72.5" cy="57" r=".54"/>
      <circle class="cls-4" cx="74.3" cy="57" r=".54"/>
      <circle class="cls-4" cx="79.68" cy="57" r=".54"/>
      <circle class="cls-4" cx="29.46" cy="58.79" r=".54"/>
      <circle class="cls-4" cx="31.26" cy="58.79" r=".54"/>
      <circle class="cls-4" cx="36.64" cy="58.79" r=".54"/>
      <circle class="cls-4" cx="40.22" cy="58.79" r=".54"/>
      <circle class="cls-4" cx="42.02" cy="58.79" r=".54"/>
      <circle class="cls-4" cx="45.6" cy="58.79" r=".54"/>
      <circle class="cls-4" cx="47.4" cy="58.79" r=".54"/>
      <circle class="cls-4" cx="54.57" cy="58.79" r=".54"/>
      <circle class="cls-4" cx="61.74" cy="58.79" r=".54"/>
      <circle class="cls-4" cx="68.92" cy="58.79" r=".54"/>
      <circle class="cls-4" cx="70.71" cy="58.79" r=".54"/>
      <circle class="cls-4" cx="77.88" cy="58.79" r=".54"/>
      <circle class="cls-4" cx="29.46" cy="60.58" r=".54"/>
      <circle class="cls-4" cx="33.05" cy="60.58" r=".54"/>
      <circle class="cls-4" cx="34.84" cy="60.58" r=".54"/>
      <circle class="cls-4" cx="38.43" cy="60.58" r=".54"/>
      <circle class="cls-4" cx="42.02" cy="60.58" r=".54"/>
      <circle class="cls-4" cx="43.81" cy="60.58" r=".54"/>
      <circle class="cls-4" cx="45.6" cy="60.58" r=".54"/>
      <circle class="cls-4" cx="50.98" cy="60.58" r=".54"/>
      <circle class="cls-4" cx="52.78" cy="60.58" r=".54"/>
      <circle class="cls-4" cx="56.36" cy="60.58" r=".54"/>
      <circle class="cls-4" cx="58.16" cy="60.58" r=".54"/>
      <circle class="cls-4" cx="61.74" cy="60.58" r=".54"/>
      <circle class="cls-4" cx="63.54" cy="60.58" r=".54"/>
      <circle class="cls-4" cx="70.71" cy="60.58" r=".54"/>
      <circle class="cls-4" cx="79.68" cy="60.58" r=".54"/>
      <circle class="cls-4" cx="29.46" cy="62.38" r=".54"/>
      <circle class="cls-4" cx="36.64" cy="62.38" r=".54"/>
      <circle class="cls-4" cx="38.43" cy="62.38" r=".54"/>
      <circle class="cls-4" cx="40.22" cy="62.38" r=".54"/>
      <circle class="cls-4" cx="42.02" cy="62.38" r=".54"/>
      <circle class="cls-4" cx="47.4" cy="62.38" r=".54"/>
      <circle class="cls-4" cx="50.98" cy="62.38" r=".54"/>
      <circle class="cls-4" cx="52.78" cy="62.38" r=".54"/>
      <circle class="cls-4" cx="59.95" cy="62.38" r=".54"/>
      <circle class="cls-4" cx="67.12" cy="62.38" r=".54"/>
      <circle class="cls-4" cx="70.71" cy="62.38" r=".54"/>
      <circle class="cls-4" cx="74.3" cy="62.38" r=".54"/>
      <circle class="cls-4" cx="76.09" cy="62.38" r=".54"/>
      <circle class="cls-4" cx="77.88" cy="62.38" r=".54"/>
      <circle class="cls-4" cx="79.68" cy="62.38" r=".54"/>
      <circle class="cls-4" cx="29.46" cy="64.17" r=".54"/>
      <circle class="cls-4" cx="36.64" cy="64.17" r=".54"/>
      <circle class="cls-4" cx="38.43" cy="64.17" r=".54"/>
      <circle class="cls-4" cx="43.81" cy="64.17" r=".54"/>
      <circle class="cls-4" cx="45.6" cy="64.17" r=".54"/>
      <circle class="cls-4" cx="49.19" cy="64.17" r=".54"/>
      <circle class="cls-4" cx="50.98" cy="64.17" r=".54"/>
      <circle class="cls-4" cx="54.57" cy="64.17" r=".54"/>
      <circle class="cls-4" cx="56.36" cy="64.17" r=".54"/>
      <circle class="cls-4" cx="58.16" cy="64.17" r=".54"/>
      <circle class="cls-4" cx="59.95" cy="64.17" r=".54"/>
      <circle class="cls-4" cx="61.74" cy="64.17" r=".54"/>
      <circle class="cls-4" cx="63.54" cy="64.17" r=".54"/>
      <circle class="cls-4" cx="68.92" cy="64.17" r=".54"/>
      <circle class="cls-4" cx="70.71" cy="64.17" r=".54"/>
      <circle class="cls-4" cx="74.3" cy="64.17" r=".54"/>
      <circle class="cls-4" cx="76.09" cy="64.17" r=".54"/>
      <circle class="cls-4" cx="79.68" cy="64.17" r=".54"/>
      <circle class="cls-4" cx="36.64" cy="65.96" r=".54"/>
      <circle class="cls-4" cx="38.43" cy="65.96" r=".54"/>
      <circle class="cls-4" cx="40.22" cy="65.96" r=".54"/>
      <circle class="cls-4" cx="43.81" cy="65.96" r=".54"/>
      <circle class="cls-4" cx="45.6" cy="65.96" r=".54"/>
      <circle class="cls-4" cx="52.78" cy="65.96" r=".54"/>
      <circle class="cls-4" cx="54.57" cy="65.96" r=".54"/>
      <circle class="cls-4" cx="58.16" cy="65.96" r=".54"/>
      <circle class="cls-4" cx="59.95" cy="65.96" r=".54"/>
      <circle class="cls-4" cx="63.54" cy="65.96" r=".54"/>
      <circle class="cls-4" cx="65.33" cy="65.96" r=".54"/>
      <circle class="cls-4" cx="67.12" cy="65.96" r=".54"/>
      <circle class="cls-4" cx="68.92" cy="65.96" r=".54"/>
      <circle class="cls-4" cx="70.71" cy="65.96" r=".54"/>
      <circle class="cls-4" cx="72.5" cy="65.96" r=".54"/>
      <circle class="cls-4" cx="74.3" cy="65.96" r=".54"/>
      <circle class="cls-4" cx="77.88" cy="65.96" r=".54"/>
      <circle class="cls-4" cx="79.68" cy="65.96" r=".54"/>
      <circle class="cls-4" cx="29.46" cy="67.76" r=".54"/>
      <circle class="cls-4" cx="31.26" cy="67.76" r=".54"/>
      <circle class="cls-4" cx="33.05" cy="67.76" r=".54"/>
      <circle class="cls-4" cx="42.02" cy="67.76" r=".54"/>
      <circle class="cls-4" cx="43.81" cy="67.76" r=".54"/>
      <circle class="cls-4" cx="47.4" cy="67.76" r=".54"/>
      <circle class="cls-4" cx="49.19" cy="67.76" r=".54"/>
      <circle class="cls-4" cx="54.57" cy="67.76" r=".54"/>
      <circle class="cls-4" cx="63.54" cy="67.76" r=".54"/>
      <circle class="cls-4" cx="65.33" cy="67.76" r=".54"/>
      <circle class="cls-4" cx="72.5" cy="67.76" r=".54"/>
      <circle class="cls-4" cx="74.3" cy="67.76" r=".54"/>
      <circle class="cls-4" cx="29.46" cy="69.55" r=".54"/>
      <circle class="cls-4" cx="33.05" cy="69.55" r=".54"/>
      <circle class="cls-4" cx="36.64" cy="69.55" r=".54"/>
      <circle class="cls-4" cx="38.43" cy="69.55" r=".54"/>
      <circle class="cls-4" cx="40.22" cy="69.55" r=".54"/>
      <circle class="cls-4" cx="42.02" cy="69.55" r=".54"/>
      <circle class="cls-4" cx="45.6" cy="69.55" r=".54"/>
      <circle class="cls-4" cx="47.4" cy="69.55" r=".54"/>
      <circle class="cls-4" cx="49.19" cy="69.55" r=".54"/>
      <circle class="cls-4" cx="50.98" cy="69.55" r=".54"/>
      <circle class="cls-4" cx="52.78" cy="69.55" r=".54"/>
      <circle class="cls-4" cx="54.57" cy="69.55" r=".54"/>
      <circle class="cls-4" cx="56.36" cy="69.55" r=".54"/>
      <circle class="cls-4" cx="59.95" cy="69.55" r=".54"/>
      <circle class="cls-4" cx="65.33" cy="69.55" r=".54"/>
      <circle class="cls-4" cx="67.12" cy="69.55" r=".54"/>
      <circle class="cls-4" cx="70.71" cy="69.55" r=".54"/>
      <circle class="cls-4" cx="72.5" cy="69.55" r=".54"/>
      <circle class="cls-4" cx="74.3" cy="69.55" r=".54"/>
      <circle class="cls-4" cx="77.88" cy="69.55" r=".54"/>
      <circle class="cls-4" cx="31.26" cy="71.34" r=".54"/>
      <circle class="cls-4" cx="33.05" cy="71.34" r=".54"/>
      <circle class="cls-4" cx="34.84" cy="71.34" r=".54"/>
      <circle class="cls-4" cx="43.81" cy="71.34" r=".54"/>
      <circle class="cls-4" cx="45.6" cy="71.34" r=".54"/>
      <circle class="cls-4" cx="47.4" cy="71.34" r=".54"/>
      <circle class="cls-4" cx="49.19" cy="71.34" r=".54"/>
      <circle class="cls-4" cx="50.98" cy="71.34" r=".54"/>
      <circle class="cls-4" cx="52.78" cy="71.34" r=".54"/>
      <circle class="cls-4" cx="54.57" cy="71.34" r=".54"/>
      <circle class="cls-4" cx="61.74" cy="71.34" r=".54"/>
      <circle class="cls-4" cx="63.54" cy="71.34" r=".54"/>
      <circle class="cls-4" cx="65.33" cy="71.34" r=".54"/>
      <circle class="cls-4" cx="67.12" cy="71.34" r=".54"/>
      <circle class="cls-4" cx="70.71" cy="71.34" r=".54"/>
      <circle class="cls-4" cx="29.46" cy="73.14" r=".54"/>
      <circle class="cls-4" cx="34.84" cy="73.14" r=".54"/>
      <circle class="cls-4" cx="36.64" cy="73.14" r=".54"/>
      <circle class="cls-4" cx="40.22" cy="73.14" r=".54"/>
      <circle class="cls-4" cx="43.81" cy="73.14" r=".54"/>
      <circle class="cls-4" cx="47.4" cy="73.14" r=".54"/>
      <circle class="cls-4" cx="49.19" cy="73.14" r=".54"/>
      <circle class="cls-4" cx="50.98" cy="73.14" r=".54"/>
      <circle class="cls-4" cx="59.95" cy="73.14" r=".54"/>
      <circle class="cls-4" cx="63.54" cy="73.14" r=".54"/>
      <circle class="cls-4" cx="68.92" cy="73.14" r=".54"/>
      <circle class="cls-4" cx="33.05" cy="74.93" r=".54"/>
      <circle class="cls-4" cx="38.43" cy="74.93" r=".54"/>
      <circle class="cls-4" cx="42.02" cy="74.93" r=".54"/>
      <circle class="cls-4" cx="43.81" cy="74.93" r=".54"/>
      <circle class="cls-4" cx="49.19" cy="74.93" r=".54"/>
      <circle class="cls-4" cx="54.57" cy="74.93" r=".54"/>
      <circle class="cls-4" cx="61.74" cy="74.93" r=".54"/>
      <circle class="cls-4" cx="63.54" cy="74.93" r=".54"/>
      <circle class="cls-4" cx="67.12" cy="74.93" r=".54"/>
      <circle class="cls-4" cx="68.92" cy="74.93" r=".54"/>
      <circle class="cls-4" cx="72.5" cy="74.93" r=".54"/>
      <circle class="cls-4" cx="74.3" cy="74.93" r=".54"/>
      <circle class="cls-4" cx="76.09" cy="74.93" r=".54"/>
      <circle class="cls-4" cx="31.26" cy="76.72" r=".54"/>
      <circle class="cls-4" cx="33.05" cy="76.72" r=".54"/>
      <circle class="cls-4" cx="34.84" cy="76.72" r=".54"/>
      <circle class="cls-4" cx="36.64" cy="76.72" r=".54"/>
      <circle class="cls-4" cx="38.43" cy="76.72" r=".54"/>
      <circle class="cls-4" cx="40.22" cy="76.72" r=".54"/>
      <circle class="cls-4" cx="45.6" cy="76.72" r=".54"/>
      <circle class="cls-4" cx="50.98" cy="76.72" r=".54"/>
      <circle class="cls-4" cx="52.78" cy="76.72" r=".54"/>
      <circle class="cls-4" cx="54.57" cy="76.72" r=".54"/>
      <circle class="cls-4" cx="56.36" cy="76.72" r=".54"/>
      <circle class="cls-4" cx="58.16" cy="76.72" r=".54"/>
      <circle class="cls-4" cx="61.74" cy="76.72" r=".54"/>
      <circle class="cls-4" cx="65.33" cy="76.72" r=".54"/>
      <circle class="cls-4" cx="67.12" cy="76.72" r=".54"/>
      <circle class="cls-4" cx="68.92" cy="76.72" r=".54"/>
      <circle class="cls-4" cx="70.71" cy="76.72" r=".54"/>
      <circle class="cls-4" cx="72.5" cy="76.72" r=".54"/>
      <circle class="cls-4" cx="74.3" cy="76.72" r=".54"/>
      <circle class="cls-4" cx="76.09" cy="76.72" r=".54"/>
      <circle class="cls-4" cx="77.88" cy="76.72" r=".54"/>
      <circle class="cls-4" cx="79.68" cy="76.72" r=".54"/>
      <circle class="cls-4" cx="43.81" cy="78.52" r=".54"/>
      <circle class="cls-4" cx="47.4" cy="78.52" r=".54"/>
      <circle class="cls-4" cx="50.98" cy="78.52" r=".54"/>
      <circle class="cls-4" cx="52.78" cy="78.52" r=".54"/>
      <circle class="cls-4" cx="58.16" cy="78.52" r=".54"/>
      <circle class="cls-4" cx="59.95" cy="78.52" r=".54"/>
      <circle class="cls-4" cx="63.54" cy="78.52" r=".54"/>
      <circle class="cls-4" cx="65.33" cy="78.52" r=".54"/>
      <circle class="cls-4" cx="72.5" cy="78.52" r=".54"/>
      <circle class="cls-4" cx="74.3" cy="78.52" r=".54"/>
      <circle class="cls-4" cx="77.88" cy="78.52" r=".54"/>
      <circle class="cls-4" cx="79.68" cy="78.52" r=".54"/>
      <circle class="cls-4" cx="43.81" cy="80.31" r=".54"/>
      <circle class="cls-4" cx="49.19" cy="80.31" r=".54"/>
      <circle class="cls-4" cx="52.78" cy="80.31" r=".54"/>
      <circle class="cls-4" cx="58.16" cy="80.31" r=".54"/>
      <circle class="cls-4" cx="63.54" cy="80.31" r=".54"/>
      <circle class="cls-4" cx="65.33" cy="80.31" r=".54"/>
      <circle class="cls-4" cx="68.92" cy="80.31" r=".54"/>
      <circle class="cls-4" cx="72.5" cy="80.31" r=".54"/>
      <circle class="cls-4" cx="76.09" cy="80.31" r=".54"/>
      <circle class="cls-4" cx="77.88" cy="80.31" r=".54"/>
      <circle class="cls-4" cx="45.6" cy="82.1" r=".54"/>
      <circle class="cls-4" cx="49.19" cy="82.1" r=".54"/>
      <circle class="cls-4" cx="52.78" cy="82.1" r=".54"/>
      <circle class="cls-4" cx="54.57" cy="82.1" r=".54"/>
      <circle class="cls-4" cx="56.36" cy="82.1" r=".54"/>
      <circle class="cls-4" cx="65.33" cy="82.1" r=".54"/>
      <circle class="cls-4" cx="72.5" cy="82.1" r=".54"/>
      <circle class="cls-4" cx="49.19" cy="83.9" r=".54"/>
      <circle class="cls-4" cx="52.78" cy="83.9" r=".54"/>
      <circle class="cls-4" cx="59.95" cy="83.9" r=".54"/>
      <circle class="cls-4" cx="61.74" cy="83.9" r=".54"/>
      <circle class="cls-4" cx="65.33" cy="83.9" r=".54"/>
      <circle class="cls-4" cx="67.12" cy="83.9" r=".54"/>
      <circle class="cls-4" cx="68.92" cy="83.9" r=".54"/>
      <circle class="cls-4" cx="70.71" cy="83.9" r=".54"/>
      <circle class="cls-4" cx="72.5" cy="83.9" r=".54"/>
      <circle class="cls-4" cx="74.3" cy="83.9" r=".54"/>
      <circle class="cls-4" cx="76.09" cy="83.9" r=".54"/>
      <circle class="cls-4" cx="77.88" cy="83.9" r=".54"/>
      <circle class="cls-4" cx="43.81" cy="85.69" r=".54"/>
      <circle class="cls-4" cx="45.6" cy="85.69" r=".54"/>
      <circle class="cls-4" cx="47.4" cy="85.69" r=".54"/>
      <circle class="cls-4" cx="54.57" cy="85.69" r=".54"/>
      <circle class="cls-4" cx="56.36" cy="85.69" r=".54"/>
      <circle class="cls-4" cx="58.16" cy="85.69" r=".54"/>
      <circle class="cls-4" cx="63.54" cy="85.69" r=".54"/>
      <circle class="cls-4" cx="72.5" cy="85.69" r=".54"/>
      <circle class="cls-4" cx="74.3" cy="85.69" r=".54"/>
      <circle class="cls-4" cx="77.88" cy="85.69" r=".54"/>
      <circle class="cls-4" cx="43.81" cy="87.48" r=".54"/>
      <circle class="cls-4" cx="45.6" cy="87.48" r=".54"/>
      <circle class="cls-4" cx="50.98" cy="87.48" r=".54"/>
      <circle class="cls-4" cx="52.78" cy="87.48" r=".54"/>
      <circle class="cls-4" cx="56.36" cy="87.48" r=".54"/>
      <circle class="cls-4" cx="61.74" cy="87.48" r=".54"/>
      <circle class="cls-4" cx="65.33" cy="87.48" r=".54"/>
      <circle class="cls-4" cx="70.71" cy="87.48" r=".54"/>
      <circle class="cls-4" cx="74.3" cy="87.48" r=".54"/>
      <circle class="cls-4" cx="79.68" cy="87.48" r=".54"/>
      <circle class="cls-4" cx="47.4" cy="89.28" r=".54"/>
      <circle class="cls-4" cx="52.78" cy="89.28" r=".54"/>
      <circle class="cls-4" cx="58.16" cy="89.28" r=".54"/>
      <circle class="cls-4" cx="59.95" cy="89.28" r=".54"/>
      <circle class="cls-4" cx="72.5" cy="89.28" r=".54"/>
      <circle class="cls-4" cx="77.88" cy="89.28" r=".54"/>
      <circle class="cls-4" cx="45.6" cy="91.07" r=".54"/>
      <circle class="cls-4" cx="47.4" cy="91.07" r=".54"/>
      <circle class="cls-4" cx="58.16" cy="91.07" r=".54"/>
      <circle class="cls-4" cx="61.74" cy="91.07" r=".54"/>
      <circle class="cls-4" cx="65.33" cy="91.07" r=".54"/>
      <circle class="cls-4" cx="68.92" cy="91.07" r=".54"/>
      <circle class="cls-4" cx="70.71" cy="91.07" r=".54"/>
      <circle class="cls-4" cx="77.88" cy="91.07" r=".54"/>
      <g>
        <rect class="cls-7" x="30.45" y="41.84" width="8.79" height="8.79"/>
        <path class="cls-4" d="M39.24,39.96h-10.67v12.55h12.55v-12.55h-1.88ZM39.24,50.63h-8.79v-8.79h8.79v8.79Z"/>
      </g>
      <g>
        <rect class="cls-7" x="69.9" y="41.84" width="8.79" height="8.79"/>
        <path class="cls-4" d="M78.69,39.96h-10.67v12.55h12.55v-12.55h-1.88ZM78.69,50.63h-8.79v-8.79h8.79v8.79Z"/>
      </g>
      <g>
        <rect class="cls-7" x="30.45" y="81.3" width="8.79" height="8.79"/>
        <path class="cls-4" d="M39.24,79.41h-10.67v12.55h12.55v-12.55h-1.88ZM39.24,90.08h-8.79v-8.79h8.79v8.79Z"/>
      </g>
      <rect class="cls-4" x="32.15" y="43.55" width="5.38" height="5.38"/>
      <rect class="cls-4" x="71.61" y="43.55" width="5.38" height="5.38"/>
      <rect class="cls-4" x="32.15" y="83" width="5.38" height="5.38"/>
      <g>
        <g>
          <path id="SVGID" class="cls-13" d="M47.1,65.96c0-3.15,2.56-5.71,5.71-5.71s5.71,2.56,5.71,5.71-2.56,5.71-5.71,5.71c-3.15,0-5.71-2.56-5.71-5.71M52.81,58.69c-4.02,0-7.27,3.26-7.27,7.27s3.26,7.27,7.27,7.27,7.27-3.26,7.27-7.27-3.26-7.27-7.27-7.27Z"/>
          <path class="cls-31" d="M47.1,65.96c0-3.15,2.56-5.71,5.71-5.71s5.71,2.56,5.71,5.71-2.56,5.71-5.71,5.71c-3.15,0-5.71-2.56-5.71-5.71M52.81,58.69c-4.02,0-7.27,3.26-7.27,7.27s3.26,7.27,7.27,7.27,7.27-3.26,7.27-7.27-3.26-7.27-7.27-7.27Z"/>
        </g>
        <g>
          <path class="cls-12" d="M52.81,72.52c-3.62,0-6.56-2.94-6.56-6.56s2.94-6.56,6.56-6.56,6.56,2.94,6.56,6.56-2.94,6.56-6.56,6.56M52.81,59.2c-3.74,0-6.77,3.03-6.77,6.77s3.03,6.77,6.77,6.77,6.77-3.03,6.77-6.77-3.03-6.77-6.77-6.77"/>
          <path class="cls-14" d="M58.7,65.96c0,3.2-2.64,5.8-5.89,5.8s-5.89-2.6-5.89-5.8,2.64-5.8,5.89-5.8,5.9,2.6,5.9,5.8"/>
        </g>
        <path id="SVGID-2" data-name="SVGID" class="cls-9" d="M48.8,69.89c-1.02-1.01-1.65-2.39-1.65-3.92s.63-2.92,1.65-3.92c1.02-1.01,2.44-1.63,4-1.63s2.97.62,4,1.63c1.02,1.01,1.65,2.39,1.65,3.92s-.63,2.92-1.65,3.92c-1.02,1.01-2.44,1.63-4,1.63-1.56,0-2.98-.62-4-1.63M48.46,61.69c-1.11,1.09-1.8,2.6-1.8,4.27s.69,3.18,1.8,4.27c1.11,1.09,2.65,1.77,4.34,1.77s3.23-.68,4.34-1.77c1.11-1.09,1.8-2.6,1.8-4.27,0-1.67-.69-3.18-1.8-4.27s-2.65-1.77-4.34-1.77-3.23.68-4.34,1.77"/>
        <path class="cls-34" d="M53.66,62.74s.11.09.2.15c.09.06.52.44.6.55,0,0,.53.63.68,1.17,0,0,.03.08.06-.08,0,0,.15-.64-.23-1.13,0,0-.31-.48-1.07-.65,0,0-.15-.03-.21-.03-.02,0-.03,0-.03,0M52.88,68.27h0s1.26-1.68,1.26-1.68h1.23s.23,0,.37.1c0,0,.2.13.18.26,0,0-.02.08-.1.02,0,0-.09-.16-.3-.22,0,0-.33-.09-.53,0,0,0-.09.05-.03.15,0,0,.07.03-.13.25-.2.22-1.17,1.3-1.17,1.3l-.69.21-.09-.38ZM52.82,61.59v7.65h4.23c-.31-.15-.33-.34-.33-.34,0,0-.02-.09.05-.15,0,0,.04-.03.09-.02,0,0-.12-.07-.24.03,0,0-.05.04-.09.12,0,0-.03.07-.12.06,0,0-.03,0-.06-.02-.01,0-.03-.03-.03-.05,0,0-.03-.07.04-.13,0,0,.04-.03.09-.02,0,0-.12-.07-.24.03,0,0-.05.04-.09.12,0,0-.03.07-.12.06,0,0-.03,0-.06-.02h0s-.03-.03-.03-.05c0,0-.03-.07.04-.13,0,0,.04-.03.09-.02,0,0-.12-.07-.24.03,0,0-.05.04-.09.12,0,0-.03.07-.12.06,0,0-.03,0-.06-.02-.01,0-.03-.03-.03-.05,0,0-.03-.07.04-.13,0,0,.04-.03.09-.02,0,0-.12-.07-.24.03,0,0-.05.04-.09.12,0,0-.03.07-.12.06,0,0-.02,0-.04-.01-.02,0-.04-.03-.04-.06,0,0-.03-.07.04-.13,0,0,.04-.03.09-.02,0,0-.12-.07-.24.03,0,0-.05.04-.09.12,0,0-.03.07-.12.06,0,0-.03,0-.06-.02h0s-.03-.02-.03-.05c0,0-.03-.07.04-.13,0,0,.04-.03.09-.02,0,0-.12-.07-.24.03,0,0-.05.04-.09.12,0,0-.03.07-.12.06,0,0-.03,0-.06-.02-.01,0-.03-.03-.03-.05,0,0-.03-.07.04-.13,0,0,.04-.03.09-.02,0,0-.12-.07-.24.03,0,0-.05.04-.09.12,0,0-.03.07-.11.06.03-.11.11-.24.29-.37,0,0,.27-.28.47-.35,0,0,.07-.04.05-.09,0,0-.02-.06-.12,0l-.7.23s-.15.05-.08-.02c.06-.08.73-.8.73-.8,0,0,.94-.12,1.4-.49,0,0,.65-.45.87-1.16,0,0,.09-.29.11-.5,0,0,.04-.3-.01-.53,0,0-.11-.51-.14-.57,0,0-.07-.3-.39-.68,0,0-.3-.37-.63-.54,0,0-.29-.23-.97-.39,0,0-.42-.1-.81-.07,0,0-.14.01-.17.03,0,0-.02.02.02.03s.4.11.59.2c0,0,.23.1.42.25,0,0,.27.26.34.41,0,0,.14.24.16.5,0,0,.04.25-.11.57,0,0-.04.28-.5.85l-.8,1.13-.94,1.26-.1.12c-.14,0-.04-.16-.04-.16.53-.99.65-2.02.65-2.02.12-.81.01-1.85.01-1.85-.17-1.41-.72-2.28-.75-2.32-.01,0-.02-.01-.02-.01h0M52.81,61.23s.02-.01.04-.01c.04,0,.08.04.08.1s-.03.1-.08.1c-.02,0-.03,0-.04-.02h0s0,.01,0,.01v.08c.38.05.76-.13.76-.13.2-.11,0-.08,0-.08-.5.04-.76-.21-.76-.21v.16ZM52.78,60.91s.02.08.04.08.04-.04.04-.08-.02-.08-.04-.08c-.02,0-.04.04-.04.08"/>
        <path id="SVGID-3" data-name="SVGID" class="cls-17" d="M48.9,69.31h0,0M48.81,69.25h0,0M52.32,62.52l.06,2.93c-.05.12-.11.02-.11.02l-.7-2.75s-.01-.04-.02-.03,0,.03,0,.03l.35,2.88c-.05.14-.14.04-.14.04,0,0-1-2.34-1.04-2.42-.03-.06-.04-.06-.04-.06,0,0,0,0,0,0,0,.17.66,2.67.66,2.67-.02.15-.14.05-.14.05,0,0-1.22-2.05-1.27-2.11-.01-.02-.02-.02-.02-.02-.01,0,0,.03,0,.03l.95,2.35c0,.12-.11.07-.11.07,0,0-1.39-1.48-1.45-1.53-.06-.05-.02.03-.02.03l1.09,1.73c.07.11,0,.16-.04.15s-1.42-1.06-1.46-1.09c-.04-.02-.02.01-.02.01,0,.06,1.03,1.24,1.03,1.24.19.2.15.23.15.23-.02.07-.09.04-.09.04-.04,0-1.37-.79-1.37-.79-.04,0-.01.03-.01.03l1.19,1.13c.04.06-.03.08-.03.08,0,0-1.1-.31-1.2-.35-.1-.04-.1-.02-.1-.02-.02.02,0,.04,0,.04l1.11.74s.03.09-.02.11c-.02.01-.28-.02-.52-.05-.22-.03-.43-.05-.44-.05-.03,0-.02.03-.02.03-.02.04.85.4.85.4.09.05.06.13.02.15s-.74.08-.74.08c-.08,0-.02.04-.02.04l.67.23c.08.02.1.08.05.15-.04.06-.37.18-.48.23h3.98v-3.83s-.03-.04-.03-.04c0,0-.42-2.76-.44-2.83,0-.05-.01-.07-.02-.07h0s-.01.04-.01.04"/>
      </g>
    </g>
  </g>
  <g>
    <path class="cls-3" d="M10.45,9.9h5.38v1.64h-3.69v1.95h3.2v1.64h-3.2v3.38h-1.7v-8.62Z"/>
    <path class="cls-3" d="M16.81,15.89c0-.52.12-.99.37-1.41.25-.41.59-.74,1.04-.98.44-.24.96-.36,1.53-.36s1.09.12,1.52.36c.43.24.76.56.99.98.23.41.35.88.35,1.41s-.12.99-.35,1.41c-.23.42-.56.75-.99.99-.43.24-.94.36-1.54.36-.56,0-1.06-.11-1.5-.33-.44-.22-.79-.53-1.04-.95-.25-.41-.37-.91-.37-1.49ZM18.46,15.91c0,.27.05.5.16.72s.26.38.44.51c.19.12.4.19.63.19.26,0,.48-.06.67-.19.19-.12.33-.29.43-.51s.15-.45.15-.72-.05-.52-.15-.73c-.1-.21-.25-.38-.43-.5-.19-.12-.41-.19-.67-.19-.23,0-.44.06-.63.19-.19.12-.34.29-.44.5-.11.21-.16.45-.16.73Z"/>
    <path class="cls-3" d="M25.37,13.4l.15,1.4-.04-.21c.15-.3.35-.56.61-.78.26-.21.51-.38.77-.5.25-.12.45-.18.58-.18l-.08,1.64c-.38-.05-.71.02-.98.19-.27.17-.48.4-.63.68s-.22.57-.22.87v2h-1.63v-5.12h1.48Z"/>
    <path class="cls-3" d="M29.17,11.15h1.64v2.22h1.24v1.28h-1.24v3.86h-1.64v-3.86h-.8v-1.28h.8v-2.22Z"/>
    <path class="cls-3" d="M37.38,9.9h1.7v6.98h4.05v1.64h-5.75v-8.62Z"/>
    <path class="cls-3" d="M46.76,18.66c-.48,0-.91-.1-1.29-.29s-.69-.49-.92-.88c-.23-.4-.34-.91-.34-1.52,0-.58.12-1.08.35-1.5.23-.42.54-.75.92-.98.38-.23.79-.34,1.22-.34.51,0,.89.08,1.15.25.26.17.48.35.65.56l-.07.2.15-.75h1.52v5.12h-1.64v-1.11l.13.35s-.06.04-.14.13c-.08.09-.19.2-.35.32-.15.12-.34.23-.56.32-.22.09-.49.13-.79.13ZM47.23,17.32c.2,0,.37-.03.53-.09s.29-.14.41-.26c.12-.11.22-.26.3-.43v-1.25c-.06-.17-.16-.32-.28-.44-.12-.12-.27-.21-.44-.28-.17-.07-.36-.1-.57-.1-.23,0-.45.06-.65.18s-.36.29-.47.5c-.12.21-.18.45-.18.73s.06.52.19.74c.12.22.29.39.5.52.21.12.43.19.67.19Z"/>
    <path class="cls-3" d="M53.45,18.76c-.46,0-.85-.14-1.16-.43-.31-.28-.48-.65-.49-1.11v-3.83h1.64v3.22c.02.23.07.41.18.54.1.14.27.21.52.21s.45-.08.62-.25c.18-.16.31-.39.41-.67.1-.28.15-.61.15-.97v-2.08h1.64v5.12h-1.49l-.13-.94.02.11c-.12.21-.27.4-.45.56s-.39.29-.64.38c-.24.09-.52.13-.82.13Z"/>
    <path class="cls-3" d="M60.72,18.66c-.48,0-.9-.11-1.28-.33-.37-.22-.67-.54-.88-.97-.21-.42-.32-.92-.32-1.5s.12-1.07.35-1.47c.23-.41.55-.71.96-.92.41-.21.87-.32,1.38-.32.33,0,.64.05.94.15.3.1.55.26.75.47v.52-5h1.63v9.24h-1.64v-1l.13.35c-.27.22-.56.4-.89.56-.33.15-.71.23-1.14.23ZM61.26,17.28c.22,0,.41-.03.58-.09.17-.06.32-.14.44-.26s.24-.26.33-.43v-1.25c-.06-.17-.16-.32-.29-.44s-.29-.21-.47-.28c-.18-.07-.38-.1-.6-.1-.24,0-.47.06-.67.18s-.37.29-.5.5c-.12.21-.19.45-.19.73s.06.52.19.74c.12.22.29.39.5.52.21.12.43.19.67.19Z"/>
    <path class="cls-3" d="M68.46,18.66c-.62,0-1.15-.12-1.59-.35-.43-.23-.76-.56-.99-.97-.23-.41-.34-.89-.34-1.43s.13-.98.4-1.39c.27-.41.62-.74,1.07-.99.44-.25.94-.37,1.49-.37.73,0,1.34.21,1.81.64.47.43.78,1.04.92,1.84l-3.98,1.26-.36-.89,2.88-.97-.34.15c-.06-.2-.17-.38-.33-.53-.16-.15-.4-.23-.72-.23-.24,0-.45.06-.64.17-.18.11-.32.27-.42.48-.1.21-.15.45-.15.73,0,.32.06.59.18.8.12.21.28.38.48.49s.43.16.68.16c.18,0,.35-.03.52-.09.17-.06.33-.14.5-.25l.73,1.22c-.27.16-.57.28-.88.38-.32.09-.61.14-.9.14Z"/>
    <path class="cls-3" d="M73.89,13.4l.15,1.4-.04-.21c.15-.3.35-.56.61-.78.26-.21.51-.38.77-.5.25-.12.45-.18.58-.18l-.08,1.64c-.38-.05-.71.02-.98.19-.27.17-.48.4-.63.68s-.22.57-.22.87v2h-1.63v-5.12h1.47Z"/>
    <path class="cls-3" d="M79.3,18.66c-.48,0-.9-.11-1.28-.33-.37-.22-.67-.54-.88-.97-.21-.42-.32-.92-.32-1.5s.12-1.07.35-1.47c.23-.41.55-.71.96-.92.41-.21.87-.32,1.38-.32.33,0,.64.05.94.15.3.1.55.26.75.47v.52-5h1.63v9.24h-1.64v-1l.13.35c-.27.22-.56.4-.89.56-.33.15-.71.23-1.14.23ZM79.83,17.28c.22,0,.41-.03.58-.09.17-.06.32-.14.44-.26s.24-.26.33-.43v-1.25c-.06-.17-.16-.32-.29-.44s-.29-.21-.47-.28c-.18-.07-.38-.1-.6-.1-.24,0-.47.06-.67.18s-.37.29-.5.5c-.12.21-.19.45-.19.73s.06.52.19.74c.12.22.29.39.5.52.21.12.43.19.67.19Z"/>
    <path class="cls-3" d="M86.67,18.66c-.48,0-.91-.1-1.29-.29-.39-.19-.69-.49-.92-.88-.23-.4-.34-.91-.34-1.52,0-.58.12-1.08.35-1.5.23-.42.54-.75.92-.98.38-.23.79-.34,1.22-.34.51,0,.89.08,1.15.25.26.17.48.35.65.56l-.07.2.15-.75h1.52v5.12h-1.64v-1.11l.13.35s-.06.04-.14.13-.19.2-.35.32c-.15.12-.34.23-.56.32s-.49.13-.79.13ZM87.14,17.32c.2,0,.37-.03.53-.09.16-.06.29-.14.41-.26s.22-.26.3-.43v-1.25c-.06-.17-.16-.32-.28-.44s-.27-.21-.44-.28c-.17-.07-.36-.1-.57-.1-.23,0-.45.06-.65.18s-.36.29-.47.5c-.12.21-.18.45-.18.73s.06.52.19.74c.12.22.29.39.5.52.21.12.43.19.67.19Z"/>
    <path class="cls-3" d="M91.7,9.28h1.64v9.24h-1.64v-9.24Z"/>
    <path class="cls-3" d="M97.55,18.66c-.62,0-1.15-.12-1.59-.35-.43-.23-.76-.56-.99-.97-.23-.41-.34-.89-.34-1.43s.13-.98.4-1.39c.27-.41.62-.74,1.07-.99.44-.25.94-.37,1.49-.37.73,0,1.34.21,1.81.64.47.43.78,1.04.92,1.84l-3.98,1.26-.36-.89,2.88-.97-.34.15c-.06-.2-.17-.38-.33-.53-.16-.15-.4-.23-.72-.23-.24,0-.45.06-.64.17-.18.11-.32.27-.42.48-.1.21-.15.45-.15.73,0,.32.06.59.18.8.12.21.28.38.48.49s.43.16.68.16c.18,0,.35-.03.52-.09.17-.06.33-.14.5-.25l.73,1.22c-.27.16-.57.28-.88.38-.32.09-.61.14-.9.14Z"/>
    <path class="cls-3" d="M18.09,23.98c.9,0,1.61.18,2.14.54.53.36.8.9.8,1.62,0,.53-.13.97-.39,1.33-.26.35-.62.62-1.07.8s-.96.26-1.54.26l-.27-.91c.71,0,1.34.1,1.89.29.55.2.98.47,1.31.84.32.36.48.8.48,1.31,0,.47-.08.86-.25,1.19-.17.32-.39.59-.68.79-.29.2-.61.34-.97.43s-.73.13-1.11.13h-2.87v-8.62h2.53ZM18.28,27.5c.34,0,.58-.1.74-.3.16-.2.24-.43.24-.69,0-.3-.1-.52-.3-.67-.2-.15-.47-.22-.8-.22h-.91v1.88h1.03ZM18.34,31.01c.25,0,.48-.03.68-.1.2-.07.36-.17.48-.32s.18-.33.18-.54c0-.25-.07-.44-.21-.57-.14-.13-.32-.22-.54-.27-.22-.05-.45-.08-.7-.08h-.97v1.87h1.09Z"/>
    <path class="cls-3" d="M25.38,32.73c-.62,0-1.15-.12-1.59-.35s-.76-.56-.99-.97c-.23-.41-.34-.89-.34-1.43s.13-.98.4-1.39c.27-.41.62-.74,1.07-.99.44-.25.94-.37,1.49-.37.73,0,1.34.21,1.81.64.47.43.78,1.04.92,1.84l-3.98,1.26-.36-.89,2.88-.97-.34.15c-.06-.2-.17-.38-.33-.53-.16-.15-.4-.23-.72-.23-.24,0-.45.06-.64.17-.18.11-.32.27-.42.48s-.15.45-.15.73c0,.32.06.59.18.8s.28.38.48.49.43.16.68.16c.18,0,.35-.03.52-.09.17-.06.33-.14.5-.25l.73,1.22c-.27.16-.57.28-.88.38-.32.09-.61.14-.9.14Z"/>
    <path class="cls-3" d="M31.49,32.73c-.48,0-.91-.1-1.29-.29s-.69-.49-.92-.88c-.23-.4-.34-.91-.34-1.52,0-.58.12-1.08.35-1.5.23-.42.54-.75.92-.98.38-.23.79-.34,1.22-.34.51,0,.89.08,1.15.25.26.17.48.35.65.56l-.07.2.15-.75h1.52v5.12h-1.64v-1.11l.13.35s-.06.04-.14.13c-.08.09-.19.2-.35.32-.15.12-.34.23-.56.32-.22.09-.49.13-.79.13ZM31.96,31.4c.2,0,.37-.03.53-.09s.29-.14.41-.26c.12-.11.22-.26.3-.43v-1.25c-.06-.17-.16-.32-.28-.44-.12-.12-.27-.21-.44-.28-.17-.07-.36-.1-.57-.1-.23,0-.45.06-.65.18s-.36.29-.47.5c-.12.21-.18.45-.18.73s.06.52.19.74c.12.22.29.39.5.52.21.12.43.19.67.19Z"/>
    <path class="cls-3" d="M40.87,32.14c-.23.18-.51.32-.85.43-.34.11-.67.16-1,.16-.59,0-1.09-.11-1.53-.32s-.77-.52-1.01-.92c-.24-.4-.36-.89-.36-1.46s.13-1.06.39-1.46c.26-.4.6-.71,1.01-.92.42-.21.86-.32,1.32-.32s.86.06,1.2.19c.34.12.63.29.87.49l-.8,1.05c-.11-.09-.26-.17-.45-.26s-.42-.13-.67-.13c-.23,0-.43.06-.62.18-.19.12-.34.28-.44.48-.11.2-.16.44-.16.7,0,.25.06.48.18.69s.28.38.49.5c.21.12.45.18.73.18.18,0,.35-.03.5-.08.15-.05.28-.12.39-.22l.82,1.03Z"/>
    <path class="cls-3" d="M42.13,32.59v-9.24h1.6v5.15-.2c.17-.32.42-.58.75-.78.33-.2.73-.3,1.21-.3s.89.14,1.21.43c.32.29.49.65.5,1.11v3.83h-1.64v-3.22c0-.23-.07-.41-.18-.54-.11-.14-.3-.21-.57-.21-.25,0-.47.08-.66.25-.19.16-.33.39-.43.67-.1.28-.15.61-.15.97v2.08h-1.64Z"/>
    <path class="cls-3" d="M55.77,23.98c.71,0,1.31.12,1.8.36.49.24.87.57,1.12,1.01.26.43.39.95.39,1.54,0,.35-.05.71-.16,1.06-.11.36-.27.68-.5.97s-.54.52-.92.7-.86.26-1.42.26h-1.22v2.73h-1.7v-8.62h2.61ZM56.06,28.21c.26,0,.47-.04.64-.13s.31-.2.4-.34c.1-.14.17-.28.21-.43s.06-.28.06-.39c0-.09-.01-.2-.04-.34s-.08-.29-.17-.44-.22-.27-.39-.38c-.18-.1-.41-.15-.71-.15h-1.22v2.6h1.21Z"/>
    <path class="cls-3" d="M62.49,32.73c-.48,0-.91-.1-1.29-.29-.39-.19-.69-.49-.92-.88-.23-.4-.34-.91-.34-1.52,0-.58.12-1.08.35-1.5.23-.42.54-.75.92-.98.38-.23.79-.34,1.22-.34.51,0,.89.08,1.15.25.26.17.48.35.65.56l-.07.2.15-.75h1.52v5.12h-1.64v-1.11l.13.35s-.06.04-.14.13-.19.2-.35.32c-.15.12-.34.23-.56.32s-.49.13-.79.13ZM62.95,31.4c.2,0,.37-.03.53-.09.16-.06.29-.14.41-.26s.22-.26.3-.43v-1.25c-.06-.17-.16-.32-.28-.44s-.27-.21-.44-.28c-.17-.07-.36-.1-.57-.1-.23,0-.45.06-.65.18s-.36.29-.47.5c-.12.21-.18.45-.18.73s.06.52.19.74c.12.22.29.39.5.52.21.12.43.19.67.19Z"/>
    <path class="cls-3" d="M68.99,27.48l.15,1.4-.04-.21c.15-.3.35-.56.61-.78.26-.21.51-.38.77-.5.25-.12.45-.18.58-.18l-.08,1.64c-.38-.05-.71.02-.98.19-.27.17-.48.4-.63.68s-.22.57-.22.87v2h-1.63v-5.12h1.47Z"/>
    <path class="cls-3" d="M72.32,32.59v-9.24h1.64v9.24h-1.64ZM73.47,31.18l-.16-1.56,3.09-2.27,1,.88-3.92,2.95ZM75.26,29.12l2.32,3.48h-1.91l-1.49-2.54,1.08-.94Z"/>
    <path class="cls-3" d="M78.68,25.66c0-.24.1-.44.29-.6s.4-.23.61-.23.42.08.6.23c.18.16.28.36.28.6s-.09.44-.28.59c-.18.15-.38.23-.6.23s-.42-.08-.61-.23-.29-.35-.29-.59ZM78.71,27.48h1.64v5.12h-1.64v-5.12Z"/>
    <path class="cls-3" d="M83.52,27.48l.13.91-.02-.08c.18-.32.43-.58.76-.78.33-.2.73-.3,1.21-.3s.89.14,1.21.43c.32.29.49.65.5,1.11v3.83h-1.64v-3.22c0-.23-.07-.41-.18-.54s-.3-.21-.57-.21c-.25,0-.47.08-.66.25-.19.16-.33.39-.43.67-.1.28-.15.61-.15.97v2.08h-1.64v-5.12h1.49Z"/>
    <path class="cls-3" d="M91.63,35.17c-.46,0-.85-.05-1.17-.16-.32-.11-.58-.24-.8-.4-.22-.16-.41-.3-.58-.45l.96-1.12c.18.16.39.32.63.47s.55.23.94.23c.26,0,.5-.04.72-.13.22-.09.4-.22.54-.39s.21-.39.21-.64v-1.12l.06.29c-.12.27-.35.5-.68.7-.33.2-.76.3-1.29.3-.46,0-.89-.12-1.28-.36-.39-.24-.71-.56-.94-.97-.23-.41-.35-.88-.35-1.4s.12-1.02.37-1.43c.25-.42.57-.75.97-.99.4-.24.82-.36,1.26-.36s.83.06,1.15.19c.32.13.57.29.73.47l-.06.15.17-.56h1.51v5.12c0,.5-.14.94-.42,1.33-.28.39-.65.69-1.12.91-.46.22-.98.33-1.54.33ZM90.24,29.96c0,.27.06.52.19.74.12.22.29.39.51.52.21.12.45.19.72.19.23,0,.43-.03.6-.09.17-.06.33-.14.47-.26s.25-.26.35-.43v-1.25c-.07-.17-.18-.32-.32-.44s-.3-.21-.49-.28c-.18-.07-.39-.1-.62-.1-.27,0-.5.06-.72.18s-.38.29-.51.5c-.12.21-.19.45-.19.73Z"/>
  </g>
  <text class="cls-19" transform="translate(11.27 102.13)"><tspan class="cls-29" x="0" y="0">R</tspan><tspan x="2.69" y="0">esident </tspan><tspan class="cls-30" x="17.94" y="0">r</tspan><tspan x="19.54" y="0">ates a</tspan><tspan class="cls-29" x="31.44" y="0">v</tspan><tspan x="33.52" y="0">ailable only on PayByPhone.</tspan></text>
  <text class="cls-19" transform="translate(16.47 167.74)"><tspan x="0" y="0">Exact payment only. No cash. No refund.</tspan></text>
  <g>
    <rect class="cls-15" x="7.38" y="105.74" width="95.23" height="55.4" rx="6.26" ry="6.26"/>
    <text class="cls-21" transform="translate(23.28 119.19)"><tspan x="0" y="0">PayByPhone</tspan></text>
    <text class="cls-21" transform="translate(11.85 112.49)"><tspan x="0" y="0">Apps</tspan></text>
    <text class="cls-20" transform="translate(29.03 150.31)"><tspan class="cls-27"><tspan class="cls-33" x="0" y="0">L</tspan><tspan x="1.51" y="0">OC</tspan><tspan class="cls-23" x="5.27" y="0">A</tspan><tspan class="cls-22" x="6.81" y="0">TION</tspan></tspan><tspan class="cls-24"><tspan x="-3.73" y="6.88">8800</tspan></tspan></text>
    <g>
      <rect class="cls-14" x="23.72" y="122.03" width="23.82" height="23.82" rx="3.18" ry="3.18"/>
      <g>
        <path class="cls-16" d="M27.48,124.14s-1.65,0-1.65,1.65v2.31s0,1.65,1.65,1.65h2.31s1.65,0,1.65-1.66v-2.31s0-1.65-1.65-1.65h-2.31Z"/>
        <path class="cls-16" d="M27.48,131.13s-1.65,0-1.65,1.65v2.31s0,1.65,1.65,1.65h2.31s1.65,0,1.65-1.65v-2.31s0-1.65-1.65-1.65h-2.31Z"/>
        <path class="cls-16" d="M27.48,138.12s-1.65,0-1.65,1.66v2.31s0,1.65,1.65,1.65h2.31s1.65,0,1.65-1.65v-2.31s0-1.65-1.65-1.66h-2.31Z"/>
        <path class="cls-16" d="M34.47,124.14s-1.65,0-1.65,1.65v2.31s0,1.65,1.65,1.65h2.31s1.65,0,1.65-1.65v-2.31s0-1.65-1.65-1.65h-2.31Z"/>
        <path class="cls-16" d="M34.47,131.13s-1.65,0-1.65,1.65v2.31s0,1.65,1.65,1.65h2.31s1.65,0,1.65-1.65v-2.31s0-1.65-1.65-1.65h-2.31Z"/>
        <path class="cls-16" d="M34.47,138.12s-1.65,0-1.65,1.66v2.31s0,1.65,1.65,1.65h2.31s1.65,0,1.65-1.65v-2.31s0-1.65-1.65-1.66h-2.31Z"/>
        <path class="cls-16" d="M41.47,124.14s-1.65,0-1.65,1.65v2.31s0,1.65,1.65,1.65h2.31s1.65,0,1.65-1.65v-2.32s0-1.65-1.65-1.65h-2.31Z"/>
        <path class="cls-16" d="M41.47,131.13s-1.65,0-1.65,1.65v2.31s0,1.65,1.65,1.65h2.31s1.65,0,1.65-1.65v-2.32s0-1.65-1.65-1.65h-2.31Z"/>
        <path class="cls-16" d="M41.46,138.12s-1.65,0-1.65,1.66v2.31s0,1.65,1.65,1.65h2.31s1.65,0,1.65-1.65v-2.31s0-1.66-1.65-1.66h-2.31Z"/>
      </g>
    </g>
    <text class="cls-20" transform="translate(68.21 150.31)"><tspan class="cls-27"><tspan class="cls-25" x="0" y="0">L</tspan><tspan x="1.51" y="0">OC</tspan><tspan class="cls-28" x="5.27" y="0">A</tspan><tspan x="6.81" y="0">TION</tspan></tspan><tspan class="cls-24"><tspan x="-3.03" y="6.88">1600</tspan></tspan></text>
    <text class="cls-21" transform="translate(63.39 118.72)"><tspan x="0" y="0">ParkMobile</tspan></text>
    <g>
      <rect class="cls-10" x="62.9" y="122.03" width="23.82" height="23.82" rx="3.18" ry="3.18"/>
      <g>
        <path class="cls-10" d="M74.81,144.74c5.97,0,10.8-4.84,10.8-10.8s-4.84-10.8-10.8-10.8-10.8,4.84-10.8,10.8,4.84,10.8,10.8,10.8Z"/>
        <path class="cls-14" d="M74.84,125.54c-5.47,0-8.44,4.66-8.44,8.22,0,3.29,1.68,5.18,1.68,5.18l1.49-1.15s-1.26-1.38-1.26-4.03c0-3.65,3.15-6.34,6.53-6.34s6.47,2.69,6.47,6.49c0,4.18-3.44,6.54-6.47,6.54-.94,0-1.3-.15-1.3-.15v-3.28h2.47s3.18-.21,3.18-3.71c0-3.26-3.18-3.58-3.18-3.58h-4.51v11.92s1.27.68,3.34.68c5.03,0,8.37-4.15,8.37-8.42s-3.37-8.38-8.37-8.38ZM73.54,131.54h2.2s1.54.26,1.54,1.83-1.54,1.78-1.54,1.78h-2.2v-3.61Z"/>
      </g>
    </g>
  </g>
  <g class="cls-32">
    <g>
      <path class="cls-18" d="M53.31,177.49h-1.23l.77-4.75h1.23l-.77,4.75Z"/>
      <path class="cls-18" d="M57.76,172.86c-.24-.1-.63-.2-1.1-.2-1.21,0-2.07.65-2.08,1.57-.01.68.61,1.06,1.08,1.29.48.23.64.38.64.59,0,.32-.38.46-.74.46-.49,0-.75-.08-1.15-.25l-.16-.08-.17,1.07c.29.13.82.25,1.37.25,1.29,0,2.13-.64,2.14-1.62,0-.54-.32-.95-1.03-1.29-.43-.22-.69-.36-.69-.59,0-.2.22-.41.71-.41.4-.01.69.09.92.18l.11.05.17-1.03Z"/>
      <path class="cls-18" d="M59.4,175.81c.1-.27.49-1.33.49-1.33,0,.01.1-.28.16-.45l.09.41s.23,1.14.28,1.37h-1.02ZM60.92,172.75h-.95c-.29,0-.52.09-.64.39l-1.83,4.35h1.29s.21-.59.26-.71h1.58c.04.17.15.71.15.71h1.14l-.99-4.75Z"/>
      <path class="cls-18" d="M51.05,172.75l-1.2,3.24-.13-.66c-.22-.76-.92-1.58-1.7-1.99l1.1,4.15h1.3l1.93-4.74h-1.3Z"/>
      <path class="cls-6" d="M48.73,172.75h-1.98l-.02.1c1.54.39,2.57,1.34,2.99,2.49l-.43-2.18c-.07-.3-.29-.39-.56-.4Z"/>
    </g>
  </g>
  <g>
    <path class="cls-11" d="M71.93,172.58h-2.87v5.06h2.87v-5.06Z"/>
    <path class="cls-8" d="M69.25,175.11c0-1.03.49-1.94,1.25-2.53-.56-.43-1.26-.69-2.03-.69-1.82,0-3.29,1.44-3.29,3.22s1.47,3.22,3.29,3.22c.77,0,1.47-.26,2.03-.69-.76-.58-1.25-1.5-1.25-2.53Z"/>
    <path class="cls-1" d="M75.81,175.11c0,1.78-1.47,3.22-3.29,3.22-.77,0-1.47-.26-2.03-.69.77-.59,1.25-1.5,1.25-2.53s-.49-1.94-1.25-2.53c.56-.43,1.26-.69,2.03-.69,1.82,0,3.29,1.45,3.29,3.22Z"/>
  </g>
  <g class="cls-26">
    <g>
      <path class="cls-5" d="M35.9,171.33h7.54v4.08l-.37.58.37.52v2.37h-7.54v-3.85l.23-.27-.23-.26v-3.19Z"/>
      <path class="cls-14" d="M37.37,176.6v-1.19h1.25l.13.18.14-.18h4.55v1.11s-.12.08-.26.08h-2.52l-.15-.19v.19h-.5v-.32s-.07.04-.21.04h-.17v.27h-.75l-.13-.18-.14.18h-1.25Z"/>
      <path class="cls-14" d="M35.9,174.52l.28-.66h.49l.16.37v-.37h.61l.1.27.09-.27h2.73v.13s.14-.13.38-.13h.89s.16.37.16.37v-.37h.51l.14.21v-.21h.51v1.19h-.51l-.13-.21v.21h-.75l-.08-.19h-.2l-.07.19h-.51c-.2,0-.33-.13-.33-.13v.13h-.76l-.15-.19v.19h-2.84l-.08-.19h-.2l-.07.19h-.35v-.53Z"/>
      <path class="cls-5" d="M36.29,174l-.38.89h.25l.07-.18h.41l.07.18h.25l-.38-.89h-.29ZM36.43,174.21l.12.31h-.25l.13-.31Z"/>
      <path class="cls-5" d="M36.98,174.89v-.89h.35s.21.57.21.57l.2-.57h.35v.89h-.22v-.65l-.23.65h-.19l-.24-.65v.65h-.22Z"/>
      <path class="cls-5" d="M38.24,174.89v-.89h.72v.2h-.5v.15h.49v.19h-.49v.16h.5v.19h-.72Z"/>
      <path class="cls-5" d="M39.09,174v.89h.22v-.32h.09l.27.32h.27l-.29-.33c.12-.01.24-.11.24-.27,0-.19-.15-.29-.31-.29h-.49ZM39.32,174.2h.25c.06,0,.11.05.11.09,0,.06-.06.09-.1.09h-.26v-.19Z"/>
      <path class="cls-5" d="M40.21,174.89h-.23v-.89h.23v.89Z"/>
      <path class="cls-5" d="M40.75,174.89h-.05c-.24,0-.38-.19-.38-.44s.14-.45.44-.45h.25v.21h-.25c-.12,0-.21.09-.21.24,0,.17.1.24.24.24h.06l-.09.19Z"/>
      <path class="cls-5" d="M41.23,174l-.38.89h.25l.07-.18h.41l.07.18h.25l-.38-.89h-.29ZM41.37,174.21l.12.31h-.25l.13-.31Z"/>
      <path class="cls-5" d="M41.93,174.89v-.89h.28l.36.56v-.56h.22v.89h-.27l-.37-.57v.57h-.22Z"/>
      <path class="cls-5" d="M37.52,176.45v-.89h.72v.2h-.5v.15h.49v.19h-.49v.16h.5v.19h-.72Z"/>
      <path class="cls-5" d="M41.06,176.45v-.89h.72v.2h-.5v.15h.49v.19h-.49v.16h.5v.19h-.72Z"/>
      <path class="cls-5" d="M38.27,176.45l.35-.44-.36-.45h.28l.21.28.22-.28h.27l-.36.44.35.44h-.28l-.21-.27-.2.27h-.28Z"/>
      <path class="cls-5" d="M39.26,175.56v.89h.23v-.28h.23c.2,0,.35-.11.35-.31,0-.17-.12-.3-.32-.3h-.49ZM39.49,175.76h.25c.06,0,.11.04.11.1,0,.06-.05.1-.11.1h-.25v-.2Z"/>
      <path class="cls-5" d="M40.17,175.56v.89h.22v-.32h.09l.27.32h.27l-.29-.33c.12-.01.24-.11.24-.27,0-.19-.15-.29-.31-.29h-.49ZM40.39,175.76h.25c.06,0,.11.05.11.09,0,.06-.06.09-.1.09h-.26v-.19Z"/>
      <path class="cls-5" d="M41.89,176.45v-.19h.44c.07,0,.09-.04.09-.07s-.03-.08-.09-.08h-.2c-.17,0-.27-.11-.27-.27,0-.14.09-.28.35-.28h.43l-.09.2h-.37c-.07,0-.09.04-.09.07s.03.08.08.08h.21c.19,0,.28.11.28.26,0,.16-.09.28-.29.28h-.47Z"/>
      <path class="cls-5" d="M42.7,176.45v-.19h.44c.07,0,.09-.04.09-.07s-.03-.08-.09-.08h-.2c-.17,0-.27-.11-.27-.27,0-.14.09-.28.35-.28h.43l-.09.2h-.37c-.07,0-.09.04-.09.07s.03.08.08.08h.21c.19,0,.28.11.28.26,0,.16-.09.28-.29.28h-.47Z"/>
    </g>
  </g>
</svg>