<svg width="62" height="63" viewBox="0 0 62 63" fill="none" xmlns="http://www.w3.org/2000/svg">
<circle cx="31" cy="31.7247" r="31" fill="#0F1011"/>
<circle cx="31" cy="31.7248" r="28.3429" fill="#0C1D2B"/>
<path d="M28.6198 19.6047C27.7967 19.6044 26.9988 19.3214 26.3596 18.8031C25.7204 18.2847 25.2788 17.5625 25.1086 16.7574C21.4634 18.0762 18.3499 20.5518 16.2437 23.8064C14.1377 27.0607 13.1545 30.9148 13.4445 34.7804C13.7346 38.646 15.2817 42.3104 17.8496 45.2142C20.4178 48.1177 23.8658 50.1011 27.6669 50.8612C31.468 51.6213 35.4132 51.1166 38.9007 49.424C42.3881 47.7313 45.2253 44.944 46.9796 41.487C48.7341 38.0303 49.3089 34.0943 48.6163 30.2803C47.9238 26.4663 46.0021 22.9839 43.1444 20.3645C42.488 19.768 42.0785 18.9476 41.996 18.0645C41.9137 17.1815 42.1644 16.2994 42.6989 15.5918C40.4038 14.11 37.8443 13.0856 35.1604 12.5751C35.078 13.1784 34.8426 13.7507 34.4766 14.2372L31.4792 18.1852H31.4791C30.7983 19.0773 29.7413 19.602 28.6192 19.6046L28.6198 19.6047ZM17.9671 34.7885C17.5845 34.7791 17.2349 34.5696 17.0462 34.2367C16.8575 33.9036 16.8575 33.4961 17.0462 33.1631C17.235 32.8302 17.5845 32.6207 17.9671 32.6112H20.0144C20.397 32.6206 20.7467 32.8302 20.9352 33.1631C21.1239 33.4961 21.1239 33.9036 20.9352 34.2367C20.7467 34.5696 20.397 34.7791 20.0144 34.7885H17.9671ZM23.5587 42.7087L22.111 44.1555C21.9075 44.3629 21.6294 44.4803 21.3389 44.4815C21.0481 44.4829 20.7692 44.3679 20.5637 44.1622C20.3583 43.9567 20.2435 43.6776 20.2452 43.3869C20.2467 43.0964 20.3644 42.8184 20.5719 42.6149L22.0197 41.1679H22.0196C22.2957 40.8974 22.6944 40.7935 23.0674 40.8949C23.4405 40.9964 23.7317 41.2879 23.8329 41.661C23.9339 42.034 23.8295 42.4328 23.5588 42.7086L23.5587 42.7087ZM24.0164 26.467C23.8121 26.671 23.5351 26.7855 23.2463 26.7853C22.9576 26.7851 22.6807 26.6704 22.4765 26.4662L21.0295 25.0185C20.8221 24.8149 20.7048 24.5368 20.7035 24.2462C20.7023 23.9555 20.8172 23.6766 21.0229 23.4712C21.2284 23.2657 21.5076 23.1511 21.7982 23.1526C22.0888 23.1541 22.3667 23.2717 22.57 23.4793L24.017 24.9271H24.0172C24.2212 25.1314 24.3356 25.4084 24.3355 25.6972C24.3353 25.9859 24.2206 26.2628 24.0164 26.467ZM32.2631 47.5551C32.2701 47.8484 32.1585 48.1322 31.9537 48.3423C31.7489 48.5521 31.4677 48.6706 31.1743 48.6706C30.8811 48.6706 30.6 48.5521 30.3951 48.3423C30.1903 48.1322 30.0787 47.8484 30.0858 47.5551V45.5079C30.0787 45.2147 30.1903 44.9308 30.3951 44.7208C30.6 44.5109 30.8811 44.3924 31.1743 44.3924C31.4677 44.3924 31.7488 44.5109 31.9537 44.7208C32.1585 44.9308 32.2701 45.2146 32.2631 45.5079V47.5551ZM44.6378 32.6109C45.0204 32.6203 45.3701 32.8299 45.5586 33.1628C45.7473 33.4958 45.7473 33.9033 45.5586 34.2364C45.3701 34.5693 45.0204 34.7788 44.6378 34.7882H42.5907C42.2973 34.7953 42.0136 34.6837 41.8036 34.4789C41.5937 34.274 41.4752 33.9929 41.4752 33.6995C41.4752 33.4063 41.5937 33.1251 41.8036 32.9203C42.0136 32.7155 42.2973 32.6039 42.5907 32.6109L44.6378 32.6109ZM38.8113 24.3755L40.2592 22.9284L40.259 22.9286C40.4627 22.7213 40.7408 22.6038 41.0313 22.6026C41.3219 22.6013 41.601 22.7162 41.8063 22.9219C42.0119 23.1274 42.1265 23.4065 42.125 23.6972C42.1234 23.9878 42.0058 24.2657 41.7983 24.4692L40.3504 25.9162V25.916C40.1469 26.1234 39.8688 26.2409 39.5783 26.242C39.2876 26.2434 39.0087 26.1284 38.8031 25.9228C38.5978 25.7172 38.4832 25.4381 38.4847 25.1474C38.4862 24.8569 38.6038 24.5789 38.8113 24.3755ZM38.4412 40.8894C38.6458 40.6859 38.9227 40.5717 39.2114 40.5717C39.5001 40.5717 39.7771 40.6859 39.9817 40.8894L41.4296 42.3373H41.4294C41.6984 42.6137 41.8011 43.0116 41.6996 43.3838C41.5981 43.7558 41.3074 44.0466 40.9353 44.1481C40.5633 44.2496 40.1652 44.1467 39.8888 43.8779L38.4409 42.43H38.4411C38.2373 42.2255 38.1227 41.9484 38.1227 41.6597C38.1227 41.371 38.2373 41.094 38.4411 40.8895L38.4412 40.8894ZM32.2633 23.6988V31.9626L34.7461 29.5807C34.9526 29.3718 35.2347 29.2553 35.5283 29.2575C35.8221 29.2597 36.1024 29.3805 36.3058 29.5924C36.5092 29.8042 36.6182 30.0893 36.6085 30.3827C36.5987 30.6763 36.4707 30.9534 36.2537 31.1512L31.9287 35.3025C31.7223 35.5007 31.446 35.6098 31.1599 35.6059C30.8737 35.6021 30.6005 35.4858 30.3997 35.282C30.1987 35.0781 30.0861 34.8034 30.0863 34.517V23.6987C30.0955 23.3161 30.305 22.9666 30.6381 22.7779C30.971 22.5892 31.3787 22.5892 31.7115 22.7779C32.0446 22.9666 32.2541 23.3161 32.2634 23.6987L32.2633 23.6988Z" fill="#E1E1E1"/>
<path d="M46.5241 16.6782C46.1524 16.3374 45.6271 16.2207 45.146 16.3723C44.6651 16.5239 44.3014 16.9205 44.1922 17.4129C44.083 17.9052 44.2446 18.4184 44.6163 18.7592C47.9607 21.8256 50.158 25.942 50.845 30.4271C51.532 34.9122 50.6674 39.4976 48.3943 43.4243C46.1212 47.3513 42.5756 50.3847 38.3443 52.0229C34.1128 53.6609 29.4489 53.8056 25.1243 52.4329C20.7996 51.0602 17.0729 48.2523 14.5606 44.4736C12.0486 40.6952 10.9014 36.1723 11.309 31.6532C11.7167 27.1341 13.6547 22.8899 16.8025 19.6218C19.9502 16.3539 24.1191 14.2582 28.6197 13.6818L27.4962 15.1617V15.1615C27.1912 15.5632 27.1234 16.097 27.3187 16.562C27.514 17.027 27.9425 17.3525 28.4427 17.4158C28.943 17.4792 29.4392 17.2708 29.7442 16.8694L32.7426 12.9206C32.9518 12.645 33.0524 12.3022 33.0256 11.9572C32.9987 11.6123 32.8461 11.2892 32.5969 11.0493L29.022 7.61402C28.6583 7.26449 28.1359 7.13544 27.6514 7.27558C27.167 7.41573 26.7939 7.80355 26.6731 8.29323C26.5521 8.78291 26.7017 9.29978 27.0653 9.6493L28.3367 10.8713L28.3366 10.8711C23.1903 11.5119 18.4173 13.8911 14.8081 17.6151C11.1988 21.3391 8.96961 26.184 8.48996 31.3479C8.01038 36.5119 9.30916 41.6844 12.1711 46.0095C15.0329 50.3346 19.2863 53.552 24.2266 55.1295C29.1668 56.7069 34.4977 56.5494 39.3364 54.683C44.1751 52.8167 48.2309 49.3538 50.8327 44.8674C53.4341 40.381 54.4252 35.1405 53.6415 30.014C52.8579 24.8875 50.3467 20.1825 46.5236 16.6782L46.5241 16.6782Z" fill="#E1E1E1"/>
</svg>
