<svg width="62" height="63" viewBox="0 0 62 63" fill="none" xmlns="http://www.w3.org/2000/svg">
<circle cx="31" cy="31.1979" r="31" fill="#053B62"/>
<circle cx="31" cy="31.1979" r="28.3429" fill="#005996"/>
<path d="M50.6105 29.2115H49.9774C49.2781 29.2115 48.7112 28.6628 48.7112 27.9856C48.7112 27.3087 49.278 26.7598 49.9774 26.7598H50.6105V23.0822H48.0782C47.3788 23.0822 46.8118 22.5332 46.8118 21.8563C46.8118 21.1792 47.3788 20.6304 48.0782 20.6304H51.8767C52.5758 20.6304 53.1429 21.1792 53.1429 21.8563V40.2442C53.1429 40.9213 52.5759 41.47 51.8767 41.47H48.0782C47.3788 41.47 46.8118 40.9213 46.8118 40.2442C46.8118 39.5673 47.3788 39.0183 48.0782 39.0183H50.6105V35.3407H49.9774C49.2781 35.3407 48.7112 34.7918 48.7112 34.1149C48.7112 33.4377 49.278 32.889 49.9774 32.889H50.6105V29.2115Z" fill="white"/>
<path d="M45.4057 31.318L41.5084 30.7956L39.2585 26.8581C38.6558 25.8135 37.5307 25.1304 36.2852 25.1304L32.0263 25.1305C31.6245 25.1305 31.2629 25.452 31.2629 25.8939V33.6886C31.2629 34.0903 30.9414 34.452 30.4994 34.452L9.32538 34.4518C8.92359 34.4518 8.56195 34.7733 8.56195 35.2153V37.5054C8.56195 37.9072 8.88343 38.2688 9.32538 38.2688H11.0531C11.1737 39.9965 12.6603 41.3625 14.4281 41.3625C16.196 41.3625 17.6424 39.9964 17.8031 38.2688H37.5307C37.6513 39.9965 39.1379 41.3625 40.9057 41.3625C42.6736 41.3625 44.12 39.9964 44.2807 38.2688H45.3253C46.1691 38.2688 46.8119 37.5858 46.8119 36.7823V32.8448C46.7314 32.0412 46.1689 31.3984 45.4055 31.3181L45.4057 31.318ZM14.3879 39.7555C13.4236 39.7555 12.62 38.9519 12.62 37.9876C12.62 37.0233 13.4236 36.2197 14.3879 36.2197C15.3523 36.2197 16.1558 37.0233 16.1558 37.9876C16.1558 38.9519 15.3523 39.7555 14.3879 39.7555ZM33.7138 30.6751V27.26H36.2852C36.7272 27.26 37.1691 27.501 37.4103 27.9028L38.9773 30.6751H33.7138ZM40.8254 39.7555C39.8611 39.7555 39.0575 38.9519 39.0575 37.9876C39.0575 37.0233 39.8611 36.2197 40.8254 36.2197C41.7897 36.2197 42.5933 37.0233 42.5933 37.9876C42.5931 38.9519 41.7896 39.7555 40.8254 39.7555Z" fill="white"/>
<path d="M9.3255 33.3671H29.4951C29.8969 33.3671 30.2585 33.0456 30.2585 32.6037V21.3939C30.2585 20.9921 29.937 20.6304 29.4951 20.6304H9.3255C8.92371 20.6304 8.56207 20.9519 8.56207 21.3939V32.6037C8.56207 33.0456 8.88355 33.3671 9.3255 33.3671Z" fill="white"/>
</svg>
