<svg width="62" height="62" viewBox="0 0 62 62" fill="none" xmlns="http://www.w3.org/2000/svg">
<circle cx="31" cy="31" r="31" fill="#0F1011"/>
<circle cx="31" cy="31" r="28.3429" fill="#0C1D2B"/>
<path d="M29.8981 13.3779C29.8981 15.5486 28.1383 17.3082 25.9678 17.3082C23.7972 17.3082 22.0374 15.5485 22.0374 13.3779C22.0374 11.2073 23.7972 9.4476 25.9678 9.4476C28.1383 9.4476 29.8981 11.2073 29.8981 13.3779Z" fill="#E1E1E1"/>
<path d="M47.8631 43.5574C47.5968 43.0038 47.1211 42.579 46.5411 42.3769C45.9614 42.175 45.3248 42.212 44.7722 42.4799L43.041 43.3194L38.1227 33.8168C37.9099 33.4083 37.5901 33.0654 37.1976 32.8245C36.8048 32.5837 36.3543 32.4543 35.8938 32.4497H29.4374V29.1063H33.8357C34.3617 29.1392 34.8781 28.9532 35.2621 28.5924C35.6464 28.2313 35.8641 27.7277 35.8641 27.2007C35.8641 26.6735 35.6464 26.17 35.2621 25.8089C34.8781 25.4481 34.3617 25.2621 33.8357 25.295H29.4374V21.3498C29.4374 20.6778 29.1704 20.0334 28.6954 19.5582C28.2201 19.0832 27.5758 18.8162 26.9037 18.8162H25.0315C24.3597 18.8162 23.7151 19.0832 23.2401 19.5582C22.7649 20.0334 22.4979 20.6777 22.4979 21.3498V34.5227C22.4979 35.1946 22.7649 35.8391 23.2401 36.3141C23.7151 36.7894 24.3597 37.0564 25.0315 37.0564H34.6159L40.1659 47.8294C40.4003 48.2824 40.8054 48.6239 41.2915 48.7787C41.7779 48.9332 42.3056 48.8885 42.7588 48.6541L46.8229 46.6407V46.6404C47.3678 46.3676 47.7828 45.8905 47.9777 45.3129C48.1724 44.7356 48.1313 44.1044 47.8631 43.5574Z" fill="#E1E1E1"/>
<path d="M27.1565 49.0108C24.3626 49.0079 21.6979 47.8347 19.8092 45.776C17.9205 43.7174 16.9804 40.9617 17.2177 38.1779C17.4548 35.3942 18.8471 32.8371 21.0569 31.1271V27.1745C18.6691 28.4128 16.7128 30.3457 15.4454 32.718C14.1784 35.0906 13.6598 37.7913 13.9585 40.4647C14.2572 43.1379 15.3588 45.6575 17.1183 47.692C18.8778 49.7264 21.2126 51.1797 23.8149 51.8605C26.417 52.5413 29.1645 52.4175 31.6948 51.5057C34.2253 50.5937 36.4198 48.9363 37.9896 46.7519L36.1767 43.26C35.3742 44.9757 34.0999 46.4278 32.5024 47.446C30.9052 48.4644 29.0512 49.0069 27.157 49.0106L27.1565 49.0108Z" fill="#E1E1E1"/>
</svg>
