<svg width="17" height="16" viewBox="0 0 17 16" fill="none" xmlns="http://www.w3.org/2000/svg">
<g clip-path="url(#clip0_11_164)">
<path d="M0.690735 0.38623H16.0946V8.7224L15.3322 9.91669L16.0946 10.9796V15.8284H0.690735V7.96999L1.16727 7.42062L0.690735 6.89513V0.38623Z" fill="#016FD0"/>
<path d="M3.68097 11.1466V8.72217H6.2416L6.51633 9.0812L6.80014 8.72217H16.0946V10.9794C16.0946 10.9794 15.8515 11.1442 15.5704 11.1466H10.4239L10.1141 10.7644V11.1466H9.09913V10.4942C9.09913 10.4942 8.96048 10.5853 8.66072 10.5853H8.31524V11.1466H6.77842L6.50409 10.7798L6.22554 11.1466H3.68097Z" fill="white"/>
<path d="M0.690735 6.89496L1.26817 5.54541H2.26678L2.59448 6.30137V5.54541H3.83584L4.03092 6.0918L4.22004 5.54541H9.79248V5.8201C9.79248 5.8201 10.0854 5.54541 10.5668 5.54541L12.3749 5.55174L12.6969 6.29781V5.54541H13.7358L14.0217 5.97397V5.54541H15.0701V7.96982H14.0217L13.7477 7.53988V7.96982H12.2214L12.0679 7.58765H11.6576L11.5066 7.96982H10.4715C10.0573 7.96982 9.79248 7.70075 9.79248 7.70075V7.96982H8.23184L7.9221 7.58765V7.96982H2.11884L1.96546 7.58765H1.55645L1.40415 7.96982H0.690735V6.89496Z" fill="white"/>
<path d="M1.47256 5.84424L0.693726 7.65956H1.20078L1.34449 7.29605H2.17991L2.32287 7.65956H2.84109L2.06301 5.84424H1.47256ZM1.76071 6.26672L2.01535 6.90194H1.50532L1.76071 6.26672Z" fill="#016FD0"/>
<path d="M2.89468 7.65932V5.84399L3.61524 5.84668L4.03434 7.01708L4.44341 5.84399H5.15821V7.65932H4.7055V6.32171L4.22563 7.65932H3.8286L3.34739 6.32171V7.65932H2.89468Z" fill="#016FD0"/>
<path d="M5.46796 7.65932V5.84399H6.9452V6.25006H5.92543V6.56057H6.92138V6.94274H5.92543V7.2652H6.9452V7.65932H5.46796Z" fill="#016FD0"/>
<path d="M7.20731 5.84424V7.65956H7.66001V7.01465H7.85062L8.39342 7.65956H8.94664L8.35098 6.99076C8.59544 6.97008 8.84762 6.75974 8.84762 6.43318C8.84762 6.05117 8.54853 5.84424 8.21472 5.84424H7.20731ZM7.66001 6.2503H8.17749C8.30163 6.2503 8.39193 6.34764 8.39193 6.44138C8.39193 6.56199 8.27493 6.63247 8.1842 6.63247H7.66001V6.2503Z" fill="#016FD0"/>
<path d="M9.49465 7.65932H9.03241V5.84399H9.49465V7.65932Z" fill="#016FD0"/>
<path d="M10.5907 7.65932H10.4909C10.0082 7.65932 9.71506 7.27804 9.71506 6.75912C9.71506 6.22738 10.0049 5.84399 10.6145 5.84399H11.1149V6.27394H10.5962C10.3487 6.27394 10.1737 6.46755 10.1737 6.7636C10.1737 7.11516 10.3738 7.26282 10.6622 7.26282H10.7813L10.5907 7.65932Z" fill="#016FD0"/>
<path d="M11.5757 5.84424L10.7969 7.65956H11.304L11.4477 7.29605H12.2831L12.426 7.65956H12.9443L12.1662 5.84424H11.5757ZM11.8639 6.26672L12.1185 6.90194H11.6085L11.8639 6.26672Z" fill="#016FD0"/>
<path d="M12.9972 7.65932V5.84399H13.5727L14.3076 6.98455V5.84399H14.7603V7.65932H14.2034L13.4499 6.48891V7.65932H12.9972Z" fill="#016FD0"/>
<path d="M3.99072 10.8361V9.02075H5.46797V9.42681H4.44819V9.73733H5.44414V10.1195H4.44819V10.442H5.46797V10.8361H3.99072Z" fill="#016FD0"/>
<path d="M11.2292 10.8361V9.02075H12.7065V9.42681H11.6867V9.73733H12.6779V10.1195H11.6867V10.442H12.7065V10.8361H11.2292Z" fill="#016FD0"/>
<path d="M5.5253 10.8361L6.24457 9.93961L5.50818 9.02075H6.07853L6.51708 9.58879L6.95713 9.02075H7.50514L6.77843 9.92841L7.49902 10.8361H6.92876L6.50294 10.277L6.08746 10.8361H5.5253Z" fill="#016FD0"/>
<path d="M7.5528 9.02112V10.8364H8.01741V10.2632H8.49394C8.89716 10.2632 9.20278 10.0487 9.20278 9.6317C9.20278 9.28623 8.96308 9.02112 8.55277 9.02112H7.5528ZM8.01741 9.43166H8.51926C8.64952 9.43166 8.74263 9.51169 8.74263 9.64066C8.74263 9.76181 8.64999 9.84966 8.51777 9.84966H8.01741V9.43166Z" fill="#016FD0"/>
<path d="M9.39935 9.02075V10.8361H9.85206V10.1912H10.0427L10.5855 10.8361H11.1387L10.543 10.1673C10.7875 10.1466 11.0397 9.93625 11.0397 9.60969C11.0397 9.22768 10.7406 9.02075 10.4068 9.02075H9.39935ZM9.85206 9.42681H10.3695C10.4937 9.42681 10.584 9.52416 10.584 9.6179C10.584 9.7385 10.467 9.80899 10.3762 9.80899H9.85206V9.42681Z" fill="#016FD0"/>
<path d="M12.9162 10.8361V10.442H13.8222C13.9562 10.442 14.0143 10.3693 14.0143 10.2897C14.0143 10.2134 13.9564 10.1362 13.8222 10.1362H13.4127C13.0569 10.1362 12.8587 9.91886 12.8587 9.59252C12.8587 9.30145 13.0402 9.02075 13.569 9.02075H14.4506L14.26 9.4292H13.4975C13.3518 9.4292 13.3069 9.50587 13.3069 9.57909C13.3069 9.65434 13.3624 9.73733 13.4737 9.73733H13.9026C14.2993 9.73733 14.4714 9.96292 14.4714 10.2583C14.4714 10.5759 14.2796 10.8361 13.881 10.8361H12.9162Z" fill="#016FD0"/>
<path d="M14.5777 10.8361V10.442H15.4837C15.6177 10.442 15.6758 10.3693 15.6758 10.2897C15.6758 10.2134 15.6179 10.1362 15.4837 10.1362H15.0743C14.7184 10.1362 14.5202 9.91886 14.5202 9.59252C14.5202 9.30145 14.7017 9.02075 15.2305 9.02075H16.1121L15.9215 9.4292H15.1591C15.0133 9.4292 14.9684 9.50587 14.9684 9.57909C14.9684 9.65434 15.0239 9.73733 15.1352 9.73733H15.5641C15.9608 9.73733 16.133 9.96292 16.133 10.2583C16.133 10.5759 15.9411 10.8361 15.5425 10.8361H14.5777Z" fill="#016FD0"/>
</g>
<defs>
<clipPath id="clip0_11_164">
<rect width="15.4422" height="15.4422" fill="white" transform="translate(0.690735 0.385986)"/>
</clipPath>
</defs>
</svg>
