<svg width="62" height="63" viewBox="0 0 62 63" fill="none" xmlns="http://www.w3.org/2000/svg">
<circle cx="31" cy="31.3624" r="31" fill="#053B62"/>
<circle cx="31" cy="31.3624" r="28.3429" fill="#005996"/>
<path d="M24.6458 51.067L30.2146 34.5502H16.2646L37.4002 11.3207L31.8314 27.8375H45.7814L24.6458 51.067Z" fill="white"/>
<path d="M25.5582 51.3413C25.7425 50.793 25.9269 50.2494 26.1112 49.701C26.5556 48.3868 26.9952 47.0774 27.4396 45.7632C27.9785 44.1654 28.5174 42.5723 29.0563 40.9746C29.5196 39.599 29.9829 38.2281 30.4461 36.8524C30.673 36.1858 30.9236 35.524 31.1221 34.848C31.1268 34.8385 31.1268 34.8291 31.1316 34.8196C31.3301 34.2288 30.8054 33.6237 30.2192 33.6237H25.4967H17.9804H16.2691C16.4913 34.1626 16.7135 34.7015 16.9357 35.2356C17.64 34.4651 18.3396 33.6899 19.044 32.9193C20.7316 31.0662 22.4192 29.2085 24.1069 27.3554C26.1349 25.1241 28.1675 22.8931 30.1957 20.6664C31.959 18.7282 33.7175 16.7948 35.4809 14.8567C36.3318 13.9255 37.2205 13.0131 38.0336 12.0488C38.0431 12.0346 38.0572 12.0204 38.0714 12.011C37.5467 11.7037 37.0172 11.3965 36.4925 11.0892C36.3081 11.6375 36.1238 12.1811 35.9394 12.7295C35.495 14.0437 35.0554 15.3531 34.6111 16.6673C34.0722 18.265 33.5332 19.8581 32.9944 21.4559C32.5311 22.8315 32.0678 24.2024 31.6046 25.5781C31.3777 26.2446 31.1271 26.9065 30.9286 27.5825C30.9238 27.5919 30.9238 27.6014 30.9191 27.6109C30.7206 28.2017 31.2453 28.8068 31.8315 28.8068H36.5539H44.0703H45.7815C45.5594 28.2679 45.3372 27.729 45.115 27.1948C44.4107 27.9654 43.711 28.7406 43.0067 29.5112C41.319 31.3643 39.6314 33.222 37.9437 35.0751C35.9158 37.3064 33.8832 39.5374 31.855 41.7641C30.0917 43.7023 28.3332 45.6357 26.5698 47.5737C25.7189 48.5097 24.8538 49.4315 24.0171 50.3817C24.0029 50.3959 23.9934 50.4101 23.9793 50.4195C23.6484 50.7835 23.5916 51.3981 23.9793 51.7573C24.3433 52.0882 24.9625 52.1497 25.3171 51.7573C26.0214 50.9868 26.7211 50.2115 27.4254 49.441C29.113 47.5879 30.8006 45.7301 32.4883 43.877C34.5163 41.6458 36.5489 39.4147 38.5771 37.188C40.3404 35.2499 42.0989 33.3164 43.8623 31.3784C44.7132 30.4424 45.583 29.5206 46.415 28.5705C46.4245 28.5563 46.4386 28.5421 46.4528 28.5326C46.9917 27.937 46.6325 26.9207 45.7863 26.9207H41.0638H33.5475H31.8362C32.1388 27.3177 32.446 27.7196 32.7486 28.1166C32.9329 27.5683 33.1173 27.0246 33.3016 26.4763C33.746 25.1621 34.1856 23.8527 34.63 22.5385C35.1689 20.9407 35.7078 19.3476 36.2467 17.7499C36.71 16.3742 37.1733 15.0034 37.6365 13.6276C37.8587 12.9611 38.1282 12.2993 38.3125 11.6233C38.3172 11.6138 38.3172 11.6044 38.322 11.5949C38.6245 10.7062 37.3671 9.98766 36.7431 10.6731C36.0387 11.4437 35.3391 12.2189 34.6347 12.9894C32.9471 14.8425 31.2595 16.7003 29.5718 18.5534C27.5438 20.7846 25.5112 23.0157 23.483 25.2424C21.7197 27.1806 19.9612 29.114 18.1978 31.052C17.3469 31.988 16.4771 32.9098 15.6451 33.86C15.6357 33.8741 15.6215 33.8883 15.6073 33.8978C15.0684 34.4934 15.4277 35.5098 16.2738 35.5098H20.9963H28.5126H30.2239C29.9214 35.1127 29.6141 34.7108 29.3116 34.3138C29.1272 34.8622 28.9428 35.4058 28.7585 35.9541C28.3141 37.2683 27.8745 38.5777 27.4301 39.8919C26.8912 41.4897 26.3523 43.0828 25.8134 44.6805C25.3502 46.0562 24.8869 47.427 24.4236 48.8028C24.1967 49.4693 23.9462 50.1311 23.7476 50.8071C23.7429 50.8166 23.7429 50.826 23.7382 50.8355C23.5822 51.3035 23.9178 51.8897 24.4 51.9984C24.9152 52.1213 25.3879 51.8424 25.5581 51.3413L25.5582 51.3413Z" fill="white"/>
</svg>
