<svg width="29" height="17" viewBox="0 0 29 17" fill="none" xmlns="http://www.w3.org/2000/svg">
<path d="M18.1019 1.77576H10.6843V14.8266H18.1019V1.77576Z" fill="#FF5A00"/>
<path d="M11.1781 8.30118C11.1781 5.64964 12.451 3.2963 14.4041 1.77576C12.9667 0.66893 11.1534 0 9.17559 0C4.49023 0 0.699142 3.7127 0.699142 8.30118C0.699142 12.8897 4.49023 16.6024 9.17559 16.6024C11.1534 16.6024 12.9667 15.9334 14.4041 14.8266C12.4482 13.3276 11.1781 10.9527 11.1781 8.30118Z" fill="#EB001B"/>
<path d="M28.1091 8.30118C28.1091 12.8897 24.318 16.6024 19.6326 16.6024C17.6548 16.6024 15.8415 15.9334 14.4041 14.8266C16.382 13.3034 17.6301 10.9527 17.6301 8.30118C17.6301 5.64964 16.3573 3.2963 14.4041 1.77576C15.8388 0.66893 17.652 0 19.6299 0C24.318 0 28.1091 3.73688 28.1091 8.30118Z" fill="#F79E1B"/>
</svg>
