<svg width="62" height="63" viewBox="0 0 62 63" fill="none" xmlns="http://www.w3.org/2000/svg">
<circle cx="31" cy="31.7326" r="31" fill="#0F1011"/>
<circle cx="31" cy="31.7326" r="28.3429" fill="#0C1D2B"/>
<path d="M22.1342 48.2658V21.3099H30.8875C34.2046 21.3099 36.3631 21.4422 37.3699 21.7119C41.0554 22.6829 42.8256 25.9786 42.8256 29.6052C42.8256 33.4785 40.7474 36.8593 36.8097 37.7118C35.5071 37.9693 33.6255 38.1011 31.1585 38.1011H27.6092V48.266H22.1342V48.2658ZM12.1048 26.5005V19.8696L30.4751 9.29455L49.8953 20.4746V48.2654H44.5438V23.541L30.4745 15.4419L17.4563 22.936V26.5008H12.1048V26.5005ZM27.6092 25.8651V33.5453H30.5857C32.7316 33.5453 34.1604 33.4014 34.8841 33.1185C36.3586 32.5435 37.1996 31.2562 37.1996 29.6868C37.1996 27.796 36.0072 26.3889 34.1477 26.0469C33.4995 25.9278 32.1967 25.8651 30.2339 25.8651L27.6092 25.8651Z" fill="#E1E1E1"/>
</svg>
