<svg width="51" height="17" viewBox="0 0 51 17" fill="none" xmlns="http://www.w3.org/2000/svg">
<g clip-path="url(#clip0_11_151)">
<path d="M22.2919 15.9804H18.2264L20.7693 0.284546H24.8346L22.2919 15.9804Z" fill="#00579F"/>
<path d="M37.0298 0.668237C36.2279 0.350653 34.956 0 33.3833 0C29.3685 0 26.5413 2.1372 26.524 5.19276C26.4906 7.44714 28.5482 8.69928 30.087 9.45096C31.6599 10.2191 32.1946 10.7204 32.1946 11.4051C32.1786 12.4566 30.9236 12.9413 29.7531 12.9413C28.13 12.9413 27.2603 12.6914 25.9386 12.1064L25.4033 11.8556L24.8344 15.379C25.7879 15.8126 27.5446 16.1975 29.3685 16.2143C33.6343 16.2143 36.4115 14.1102 36.4444 10.854C36.4607 9.06724 35.3742 7.69815 33.0319 6.57939C31.6099 5.86122 30.7391 5.37696 30.7391 4.64215C30.7558 3.97413 31.4756 3.28992 33.0808 3.28992C34.4024 3.2564 35.3735 3.57354 36.1092 3.89091L36.4769 4.05758L37.0298 0.668237Z" fill="#00579F"/>
<path d="M42.4332 10.4199C42.768 9.51824 44.0563 6.02836 44.0563 6.02836C44.0394 6.06187 44.3905 5.11001 44.5912 4.52566L44.8754 5.87811C44.8754 5.87811 45.6452 9.63519 45.8124 10.4199C45.177 10.4199 43.2362 10.4199 42.4332 10.4199ZM47.4516 0.284546H44.3069C43.3371 0.284546 42.6004 0.568175 42.182 1.58684L36.1432 15.9802H40.409C40.409 15.9802 41.1113 14.043 41.2623 13.6257C41.7302 13.6257 45.88 13.6257 46.482 13.6257C46.5988 14.1768 46.9671 15.9802 46.9671 15.9802H50.7314L47.4516 0.284546Z" fill="#00579F"/>
<path d="M14.8307 0.284546L10.8493 10.9876L10.4142 8.81693C9.67809 6.31221 7.36955 3.59089 4.79333 2.23777L8.44023 15.9638H12.7394L19.1297 0.284546H14.8307Z" fill="#00579F"/>
<path d="M7.15212 0.284546H0.611107L0.544189 0.601686C5.64659 1.9042 9.02581 5.04387 10.4142 8.8176L8.99224 1.60393C8.75814 0.601464 8.03873 0.317614 7.15212 0.284546Z" fill="#FAA61A"/>
</g>
<defs>
<clipPath id="clip0_11_151">
<rect width="50.1872" height="16.2143" fill="white" transform="translate(0.544189)"/>
</clipPath>
</defs>
</svg>
